<svg aria-hidden="true" style="position: absolute; width: 0; height: 0; overflow: hidden;" version="1.1" xmlns="http://www.w3.org/2000/svg" xmlns:xlink="http://www.w3.org/1999/xlink">
<defs>
<symbol id="password-retry" viewBox="0 0 48 48" fill="none">
<g clip-path="url(#clip0_306_45)">
  <mask id="mask0_306_45" style="mask-type:luminance" maskUnits="userSpaceOnUse" x="0" y="0" width="48" height="48">
    <path d="M0 48V0H48V48H40.1672C43.8274 46.0106 46.3239 42.1288 46.3239 37.6875C46.3239 37.3239 46.233 36.8693 46.233 36.5057C46.4148 36.142 46.5057 35.7784 46.5057 35.3239V30.9602C46.5057 29.5057 45.3239 28.3239 43.8693 28.3239C43.233 28.3239 42.6875 28.5057 42.233 28.8693C41.0511 27.8693 39.7784 27.142 38.3239 26.5966C37.9602 26.4148 37.5966 26.3239 37.233 26.233H37.142C36.7784 26.142 36.4148 26.142 36.0511 26.0511C36.0511 26.0511 35.9602 26.0511 35.8693 26.0511C35.4148 25.9602 35.0511 25.9602 34.5966 25.9602C28.142 25.9602 22.8693 31.233 22.8693 37.6875V37.7784C22.8693 38.142 22.8693 38.5057 22.9602 38.9602C22.9602 39.0511 22.9602 39.0511 22.9602 39.142C23.0511 39.5057 23.0511 39.8693 23.142 40.142V40.233C23.8962 43.5978 26.1314 46.4074 29.0678 48L0 48Z" fill="white"/>
  </mask>
  <g mask="url(#mask0_306_45)">
    <path d="M31 32C32.1046 32 33 31.1046 33 30C33 28.8954 32.1046 28 31 28C29.8954 28 29 28.8954 29 30C29 31.1046 29.8954 32 31 32Z" fill="white"/>
    <path d="M17.5 17.5C17.5 17.5 17.5 15.6 17.5 12C17.5 8.4 20.4 5.5 24 5.5C27.6 5.5 30.5 8.4 30.5 12C30.5 14 30.5 17.5 30.5 17.5" stroke="white" stroke-width="3" stroke-miterlimit="10"/>
    <path d="M23.9 42.5H12.5C10.8 42.5 9.5 41.2 9.5 39.5V20.5C9.5 18.8 10.8 17.5 12.5 17.5H17.5" stroke="white" stroke-width="3" stroke-miterlimit="10" stroke-linecap="round" stroke-linejoin="round"/>
    <path d="M24 17.5H35.5C37.2 17.5 38.5 18.8 38.5 20.5V39.5C38.5 41.2 37.2 42.5 35.5 42.5H30.5" stroke="white" stroke-width="3" stroke-miterlimit="10" stroke-linecap="round" stroke-linejoin="round"/>
  </g>
  <path d="M44.6875 30.8693V35.2329C44.6875 35.6875 44.3238 36.0511 43.8693 36.0511H39.5057C38.7784 36.0511 38.4148 35.2329 38.9602 34.6875L40.3238 33.3239C38.9602 31.5057 36.8693 30.4148 34.5966 30.4148C30.5966 30.5057 27.4148 33.6875 27.4148 37.6875C27.4148 41.5966 30.5966 44.8693 34.5966 44.8693C36.7784 44.8693 38.8693 43.8693 40.2329 42.142C40.6875 41.5057 41.5966 41.4148 42.142 41.8693C42.7784 42.3239 42.8693 43.2329 42.4148 43.7784C40.5057 46.142 37.6875 47.5966 34.5966 47.5966C29.142 47.5966 24.6875 43.142 24.6875 37.6875C24.6875 32.233 29.142 27.7784 34.5966 27.7784C37.5966 27.7784 40.4148 29.142 42.2329 31.4148L43.3238 30.3239C43.8693 29.8693 44.6875 30.233 44.6875 30.8693Z" fill="white"/>
</g>
<defs>
  <clipPath id="clip0_306_45">
    <rect width="48" height="48" fill="white"/>
  </clipPath>
</defs>
</symbol>
<symbol id="calendar" viewBox="0 0 32 32">
<path stroke-linejoin="round" stroke-linecap="round" stroke-miterlimit="4" stroke-width="2" d="M27 20.8v2.867c0 1.867-1.467 3.333-3.333 3.333h-15.333c-1.867 0-3.333-1.467-3.333-3.333v-9"></path>
<path stroke-linejoin="round" stroke-linecap="round" stroke-miterlimit="4" stroke-width="2" d="M5 10.133v-1.8c0-1.867 1.467-3.333 3.333-3.333h15.333c1.867 0 3.333 1.467 3.333 3.333v8.067"></path>
<path stroke-linejoin="round" stroke-linecap="round" stroke-miterlimit="4" stroke-width="2" d="M5 10.333h22"></path>
<path stroke-linejoin="round" stroke-linecap="round" stroke-miterlimit="10" stroke-width="2" d="M9.667 3.333v3"></path>
<path stroke-linejoin="round" stroke-linecap="round" stroke-miterlimit="10" stroke-width="2" d="M22.333 3.333v3"></path>
</symbol>
<symbol id="closed-eye" viewBox="0 0 32 32">
<path stroke-linejoin="round" stroke-linecap="round" stroke-miterlimit="4" stroke-width="2" d="M16 22.067v4.533"></path>
<path stroke-linejoin="round" stroke-linecap="round" stroke-miterlimit="4" stroke-width="2" d="M22.267 21.667l1.667 2.933"></path>
<path stroke-linejoin="round" stroke-linecap="round" stroke-miterlimit="4" stroke-width="2" d="M26.333 17.933l3 2.467"></path>
<path stroke-linejoin="round" stroke-linecap="round" stroke-miterlimit="4" stroke-width="2" d="M9.733 21.667l-1.667 2.933"></path>
<path stroke-linejoin="round" stroke-linecap="round" stroke-miterlimit="4" stroke-width="2" d="M5.667 17.933l-3 2.467"></path>
<path stroke-linejoin="round" stroke-linecap="round" stroke-miterlimit="4" stroke-width="2" d="M16 22.067c-6.067 0-11.2-4.667-13.467-7-0.667-0.733-0.667-1.933 0-2.667 0.467-0.533 1.133-1.133 1.933-1.867"></path>
<path stroke-linejoin="round" stroke-linecap="round" stroke-miterlimit="4" stroke-width="2" d="M8.333 7.733c2.2-1.333 4.867-2.333 7.667-2.333 6.067 0 11.267 4.667 13.467 7 0.667 0.733 0.667 1.933 0 2.667-1.733 1.8-5.2 5-9.467 6.333"></path>
</symbol>
<symbol id="opened-eye" viewBox="0 0 32 32">
<path fill="none" stroke-linejoin="round" stroke-linecap="round" stroke-miterlimit="4" stroke-width="2" d="M21.267 8.333c4 1.6 7.2 4.533 8.8 6.267 0.733 0.8 0.733 2 0 2.8-2.333 2.467-7.8 7.333-14.133 7.333-3.4 0-6.467-1.4-9-3.067"></path>
<path fill="none" stroke-linejoin="round" stroke-linecap="round" stroke-miterlimit="4" stroke-width="2" d="M3.8 19.2c-0.733-0.667-1.4-1.333-1.933-1.867-0.733-0.8-0.733-2 0-2.8 2.333-2.467 7.8-7.333 14.133-7.333"></path>
<path fill="none" stroke-linejoin="round" stroke-linecap="round" stroke-miterlimit="4" stroke-width="2" d="M23.267 12.6c0 0.2 0.067 0.467 0.067 0.733 0 4.067-3.267 7.333-7.333 7.333s-7.333-3.267-7.333-7.333"></path>
<path d="M16 10c-1.867 0-3.333 1.467-3.333 3.333s1.467 3.333 3.333 3.333 3.333-1.467 3.333-3.333-1.467-3.333-3.333-3.333z"></path>
</symbol>
<symbol id="password" viewBox="0 0 32 32">
<path d="M12.667 20c0 0.736-0.597 1.333-1.333 1.333s-1.333-0.597-1.333-1.333c0-0.736 0.597-1.333 1.333-1.333s1.333 0.597 1.333 1.333z"></path>
<path d="M17.333 20c0 0.736-0.597 1.333-1.333 1.333s-1.333-0.597-1.333-1.333c0-0.736 0.597-1.333 1.333-1.333s1.333 0.597 1.333 1.333z"></path>
<path d="M22 20c0 0.736-0.597 1.333-1.333 1.333s-1.333-0.597-1.333-1.333c0-0.736 0.597-1.333 1.333-1.333s1.333 0.597 1.333 1.333z"></path>
<path fill="none" stroke-linejoin="miter" stroke-linecap="butt" stroke-miterlimit="10" stroke-width="2" d="M11.667 11.667c0 0 0-1.267 0-3.667s1.933-4.333 4.333-4.333 4.333 1.933 4.333 4.333c0 1.333 0 3.667 0 3.667"></path>
<path fill="none" stroke-linejoin="round" stroke-linecap="round" stroke-miterlimit="10" stroke-width="2" d="M15.933 28.333h-7.6c-1.133 0-2-0.867-2-2v-12.667c0-1.133 0.867-2 2-2h3.333"></path>
<path fill="none" stroke-linejoin="round" stroke-linecap="round" stroke-miterlimit="10" stroke-width="2" d="M16 11.667h7.667c1.133 0 2 0.867 2 2v12.667c0 1.133-0.867 2-2 2h-3.333"></path>
</symbol>
<symbol id="search" viewBox="0 0 32 32">
<path stroke-linejoin="round" stroke-linecap="round" stroke-miterlimit="4" stroke-width="2.5263" d="M9.347 23.326c-4.211-1.516-7.242-5.558-7.242-10.274 0-6.063 4.884-10.947 10.947-10.947 0.926 0 1.937 0.084 2.779 0.337"></path>
<path stroke-linejoin="round" stroke-linecap="round" stroke-miterlimit="4" stroke-width="2.5263" d="M21.558 6.232c1.516 1.853 2.442 4.295 2.442 6.821 0 4.8-3.116 8.926-7.411 10.358"></path>
<path stroke-linejoin="miter" stroke-linecap="round" stroke-miterlimit="4" stroke-width="2.5263" d="M20.8 20.8l9.095 9.095"></path>
</symbol>
<symbol id="email" viewBox="0 0 32 32">
<path stroke-linejoin="round" stroke-linecap="round" stroke-miterlimit="4" stroke-width="2" d="M28.333 15.667v6.667c0 1.867-1.467 3.333-3.333 3.333h-18c-1.867 0-3.333-1.467-3.333-3.333v-2"></path>
<path stroke-linejoin="round" stroke-linecap="round" stroke-miterlimit="4" stroke-width="2" d="M3.667 16.6v-6.933c0-1.867 1.467-3.333 3.333-3.333h18c1.867 0 3.333 1.467 3.333 3.333v1.333"></path>
<path stroke-linejoin="round" stroke-linecap="round" stroke-miterlimit="4" stroke-width="2" d="M7.8 13.2l7.533 4.133c0.4 0.2 0.867 0.2 1.267 0l11.667-6.333"></path>
</symbol>
<symbol id="spartan-helmet" viewBox="0 0 32 32">
<path stroke-linejoin="round" stroke-linecap="round" stroke-miterlimit="4" stroke-width="2" d="M27 15.667c0-7.533-8.267-11.533-10.467-12.467-0.333-0.133-0.733-0.133-1.067 0-1.533 0.667-5.933 2.733-8.533 6.467"></path>
<path stroke-linejoin="round" stroke-linecap="round" stroke-miterlimit="4" stroke-width="2" d="M13 19.667l-2.333-0.867c-1-0.267-1.667-1.2-1.667-2.2v0c0-1.467 1.4-2.6 2.867-2.2l4.133 1.267 4.133-1.267c1.467-0.4 2.867 0.733 2.867 2.2v0c0 1-0.667 1.933-1.667 2.2l-2.333 0.867v8.667c0 0.867 0.867 1.533 1.733 1.267l4.8-1.467c1.133-0.333 1.733-1.6 1.267-2.667l-1.133-3.067c0 0 0.533-0.667 0.933-2.533"></path>
<path stroke-linejoin="round" stroke-linecap="round" stroke-miterlimit="4" stroke-width="2" d="M5.2 13.667c-0.133 0.6-0.2 1.267-0.2 2 0 5 1.333 6.667 1.333 6.667l-1.133 3.067c-0.467 1.067 0.133 2.333 1.267 2.667l4.133 1.467c1.667 0.533 2.4-0.4 2.4-1.267v-5.067"></path>
<path stroke-linejoin="round" stroke-linecap="round" stroke-miterlimit="4" stroke-width="2" d="M19 27.667h-6"></path>
</symbol>
<symbol id="user-generic-1" viewBox="0 0 32 32">
<path stroke-linejoin="round" stroke-linecap="round" stroke-miterlimit="5" stroke-width="2" d="M14.259 3.939c0.549-0.177 1.134-0.273 1.741-0.273 3.129 0 5.667 2.537 5.667 5.667s-2.537 5.667-5.667 5.667-5.667-2.537-5.667-5.667"></path>
<path stroke-linejoin="round" stroke-linecap="round" stroke-miterlimit="10" stroke-width="2" d="M21.461 19.667h1.54c1.473 0 2.667 1.194 2.667 2.667v0h-0.001c0 8-19.333 8-19.333 0v0c0-1.473 1.194-2.667 2.667-2.667h7.865"></path>
</symbol>
<symbol id="chevron-down" viewBox="0 0 32 32">
<path stroke-linejoin="round" stroke-linecap="round" stroke-miterlimit="10" stroke-width="2" d="M11.007 19.574l4.026 4.026c0.533 0.533 1.333 0.533 1.867 0l10.6-10.6c0.533-0.533 0.533-1.333 0-1.867l-2.733-2.733c-0.533-0.533-1.333-0.533-1.867 0l-4.697 4.697"></path>
<path stroke-linejoin="round" stroke-linecap="round" stroke-miterlimit="10" stroke-width="2" d="M15.967 15.333l-6.867-6.867c-0.533-0.533-1.333-0.533-1.867 0l-2.733 2.733c-0.533 0.533-0.533 1.333 0 1.867l3.827 3.827"></path>
</symbol>
<symbol id="slide-up" viewBox="0 0 32 32">
<path stroke-linejoin="round" stroke-linecap="round" stroke-miterlimit="10" stroke-width="2" d="M22.259 26.629c-1.835 1.083-3.974 1.704-6.259 1.704-6.811 0-12.333-5.522-12.333-12.333 0-2.347 0.656-4.541 1.794-6.409"></path>
<path stroke-linejoin="round" stroke-linecap="round" stroke-miterlimit="10" stroke-width="2" d="M8.304 6.362c2.109-1.687 4.785-2.695 7.696-2.695 6.811 0 12.333 5.522 12.333 12.333 0 2.544-0.77 4.908-2.090 6.872"></path>
<path stroke-linejoin="round" stroke-linecap="round" stroke-miterlimit="10" stroke-width="2" d="M11 18l4.862-4.862c0.261-0.261 0.683-0.261 0.943 0l4.862 4.862"></path>
</symbol>
<symbol id="star" viewBox="0 0 32 32">
<path stroke-linejoin="round" stroke-linecap="round" stroke-miterlimit="4" d="M25 25.8c0.267 1.8-1.6 3.133-3.267 2.333l-5.067-2.6c-0.4-0.2-0.933-0.2-1.4 0l-5.067 2.6c-1.6 0.867-3.533-0.533-3.267-2.333l0.867-5.8c0.067-0.467-0.067-0.933-0.4-1.267l-3.867-3.867c-1.267-1.267-0.6-3.533 1.267-3.8l2.933-0.467"></path>
<path stroke-linejoin="round" stroke-linecap="round" stroke-miterlimit="4" d="M11.733 9.4l2.267-4.6c0.8-1.667 3.2-1.667 4 0l2.267 4.533c0.2 0.4 0.6 0.733 1.133 0.8l5.8 0.867c1.8 0.267 2.533 2.467 1.267 3.8l-3.867 3.867c-0.333 0.333-0.467 0.8-0.4 1.267l0.267 1.733"></path>
</symbol>
<symbol id="apple" viewBox="0 0 32 32">
<path stroke-linejoin="round" stroke-linecap="round" stroke-miterlimit="4" stroke-width="2" d="M24.467 27.8c-0.867 0.867-1.8 1.533-2.933 1.533-1.733 0-2.2-1.133-4.533-1.133-2.4 0-2.867 1.133-4.6 1.133-1.933 0-3.467-1.933-4.6-3.667-2.133-3.2-2.933-6.8-2.667-9.667"></path>
<path stroke-linejoin="round" stroke-linecap="round" stroke-miterlimit="4" stroke-width="2" d="M7.4 10.867c1.267-1.267 2.933-2 4.467-2 2.067 0 3.4 1.133 5.133 1.133 1.667 0 2.667-1.133 5.067-1.133 1.6 0 3.267 0.733 4.6 2.067 0.267 0.267 0.267 0.8-0.067 1-3.6 2.6-3 8.067 0.867 10 0.333 0.133 0.467 0.533 0.267 0.867-0.333 0.733-0.6 1.267-1.067 2"></path>
<path stroke-linejoin="round" stroke-linecap="round" stroke-miterlimit="4" stroke-width="2" d="M20.4 7.333c1.067-1.333 1.8-3.2 1.533-5.133-1.667 0.133-3.667 1.2-4.867 2.6-1.067 1.267-1.933 3.2-1.6 5 1.867 0.067 3.8-1.067 4.933-2.467z"></path>
</symbol>
<symbol id="paypal" viewBox="0 0 32 32">
<path stroke-linejoin="round" stroke-linecap="round" stroke-miterlimit="4" stroke-width="2" d="M6.297 11.178l-2.445 11.604c-0.096 0.457 0.251 0.885 0.717 0.885h5.399"></path>
<path stroke-linejoin="round" stroke-linecap="round" stroke-miterlimit="4" stroke-width="2" d="M16.153 16c3.217 0 5.999-2.245 6.679-5.389l0.109-0.503c0.716-3.313-1.808-6.442-5.198-6.442h-9.182c-0.397 0-0.739 0.278-0.821 0.666l-0.779 3.698"></path>
<path stroke-linejoin="round" stroke-linecap="round" stroke-miterlimit="4" stroke-width="2" d="M15.739 24.827l0.877-4.161h4.871c3.217 0 5.999-2.245 6.679-5.389l0.109-0.503c0.716-3.313-1.808-6.441-5.198-6.441"></path>
<path stroke-linejoin="round" stroke-linecap="round" stroke-miterlimit="4" stroke-width="2" d="M23.076 8.333h-9.863l-4.027 19.116c-0.096 0.455 0.251 0.884 0.717 0.884h5.097"></path>
</symbol>
<symbol id="card" viewBox="0 0 32 32">
<path fill="none" stroke-linejoin="round" stroke-linecap="round" stroke-miterlimit="4" stroke-width="2" d="M29 21.067v1.533c0 1.733-1.4 3.133-3.2 3.133h-19.6c-1.733 0-3.2-1.4-3.2-3.133v-2"></path>
<path fill="none" stroke-linejoin="round" stroke-linecap="round" stroke-miterlimit="4" stroke-width="2" d="M3 16v-6.533c0-1.733 1.4-3.133 3.2-3.133h19.667c1.733 0 3.2 1.4 3.2 3.133v7.2"></path>
<path stroke="none" d="M2.333 10h27.333v2.667h-27.333v-2.667z"></path>
<path fill="none" stroke-linejoin="miter" stroke-linecap="round" stroke-miterlimit="4" stroke-width="2" d="M25 21.667h-4"></path>
</symbol>
<symbol id="paypal-animate" x="0px" y="0px" viewBox="0 0 48 48" xml:space="preserve" width="48" height="48">
<path style="fill: none; stroke: rgb(0, 0, 0); stroke-width: 3; stroke-linecap: round; stroke-linejoin: round;" d="M9.446,16.767L5.779,34.173
	C5.635,34.858,6.156,35.5,6.855,35.5h8.099" class="svg-elem-1"></path>
<path style="fill: none; stroke: rgb(0, 0, 0); stroke-width: 3; stroke-linecap: round; stroke-linejoin: round;" d="M24.23,24
	c4.826,0,8.998-3.367,10.018-8.084l0.163-0.754c1.074-4.97-2.712-9.663-7.797-9.663h-5.341H17.82h-4.979
	c-0.595,0-1.109,0.417-1.232,0.999l-1.168,5.547" class="svg-elem-2"></path>
<path style="fill: none; stroke: rgb(0, 0, 0); stroke-width: 3; stroke-linecap: round; stroke-linejoin: round;" d="M23.608,37.241L24.923,31
	h7.307c4.826,0,8.998-3.367,10.018-8.084l0.163-0.754c1.074-4.969-2.712-9.662-7.797-9.662" class="svg-elem-3"></path>
<path style="fill: none; stroke: rgb(0, 0, 0); stroke-width: 3; stroke-linecap: round; stroke-linejoin: round;" d="M34.614,12.5H19.82
	l-6.041,28.674c-0.144,0.683,0.377,1.326,1.075,1.326H22.5" class="svg-elem-4"></path>
</symbol>
<symbol id="play" width="48px" height="48px" viewBox="0,0,256,256">
<g fill-rule="nonzero" stroke="none" stroke-linecap="butt" stroke-linejoin="miter" stroke-miterlimit="10" stroke-dasharray="" stroke-dashoffset="0" font-family="none" font-weight="none" font-size="none" text-anchor="none" style="mix-blend-mode: normal">
<g transform="scale(5.33333,5.33333)">
<path d="M9.99219,4.11133c-2.29228,0.09069 -4.39648,1.96085 -4.39648,4.48047v30.81641c0,3.35949 3.7408,5.56369 6.67969,3.93555l10.72266,-5.94141c0.4877,-0.24946 0.80064,-0.74491 0.81638,-1.29248c0.01574,-0.54757 -0.26824,-1.06017 -0.7408,-1.33723c-0.47256,-0.27706 -1.05857,-0.2745 -1.5287,0.00666l-10.72266,5.94141c-1.06112,0.58786 -2.22656,-0.09999 -2.22656,-1.3125v-30.81641c0,-1.21251 1.16544,-1.90036 2.22656,-1.3125l3.26563,1.81055c0.46892,0.25963 1.04073,0.24936 1.50002,-0.02694c0.45929,-0.2763 0.73627,-0.77666 0.7266,-1.31257c-0.00967,-0.53591 -0.30453,-1.02594 -0.77349,-1.28549l-3.26562,-1.80859c-0.73472,-0.40704 -1.51911,-0.57515 -2.2832,-0.54492zM19.58398,8.9043c-0.69333,-0.01387 -1.30581,0.4493 -1.48131,1.1202c-0.1755,0.6709 0.13172,1.37465 0.74303,1.70207l19.78711,10.96094c1.09856,0.60871 1.09856,2.01629 0,2.625l-10.60742,5.875c-0.46902,0.25987 -0.76375,0.75024 -0.77314,1.28636c-0.00939,0.53612 0.26799,1.03651 0.72762,1.31265c0.45963,0.27613 1.03168,0.28604 1.5006,0.02599l10.60547,-5.87695c3.02344,-1.67529 3.02344,-6.19581 0,-7.87109l-19.78516,-10.96289c-0.2186,-0.12486 -0.4651,-0.19269 -0.7168,-0.19727z"></path>
</g>
</g>
</symbol>
<symbol id="pause" width="48px" height="48px" viewBox="0,0,256,256">
<g fill-rule="nonzero" stroke="none" stroke-width="1" stroke-linecap="butt" stroke-linejoin="miter" stroke-miterlimit="10" stroke-dasharray="" stroke-dashoffset="0" font-family="none" font-weight="none" font-size="none" text-anchor="none" style="mix-blend-mode: normal">
<g transform="scale(5.33333,5.33333)">
<path d="M10.5,5c-2.4675,0 -4.5,2.0325 -4.5,4.5v2.49805c-0.00765,0.54095 0.27656,1.04412 0.74381,1.31683c0.46725,0.27271 1.04514,0.27271 1.51238,0c0.46725,-0.27271 0.75146,-0.77588 0.74381,-1.31683v-2.49805c0,-0.8465 0.6535,-1.5 1.5,-1.5h5c0.8465,0 1.5,0.6535 1.5,1.5v22.75391c-0.00765,0.54095 0.27656,1.04412 0.74381,1.31683c0.46725,0.27271 1.04514,0.27271 1.51238,0c0.46725,-0.27271 0.75146,-0.77588 0.74381,-1.31683v-22.75391c0,-2.4675 -2.0325,-4.5 -4.5,-4.5zM32.5,5c-2.4675,0 -4.5,2.0325 -4.5,4.5v7.86133c-0.00765,0.54095 0.27656,1.04412 0.74381,1.31683c0.46725,0.27271 1.04514,0.27271 1.51238,0c0.46725,-0.27271 0.75146,-0.77588 0.74381,-1.31683v-7.86133c0,-0.8465 0.6535,-1.5 1.5,-1.5h5c0.8465,0 1.5,0.6535 1.5,1.5v23.43555c-0.00765,0.54095 0.27656,1.04412 0.74381,1.31683c0.46725,0.27271 1.04514,0.27271 1.51238,0c0.46725,-0.27271 0.75146,-0.77588 0.74381,-1.31683v-23.43555c0,-2.4675 -2.0325,-4.5 -4.5,-4.5zM7.47656,15.83984c-0.82766,0.01293 -1.48844,0.69381 -1.47656,1.52148v21.13867c0,2.4675 2.0325,4.5 4.5,4.5h5c2.4675,0 4.5,-2.0325 4.5,-4.5v-1.48047c0.00765,-0.54095 -0.27656,-1.04412 -0.74381,-1.31683c-0.46725,-0.27271 -1.04514,-0.27271 -1.51238,0c-0.46725,0.27271 -0.75146,0.77588 -0.74381,1.31683v1.48047c0,0.8465 -0.6535,1.5 -1.5,1.5h-5c-0.8465,0 -1.5,-0.6535 -1.5,-1.5v-21.13867c0.00582,-0.40562 -0.15288,-0.7963 -0.43991,-1.08296c-0.28703,-0.28666 -0.67792,-0.44486 -1.08353,-0.43852zM29.47656,21.79688c-0.82766,0.01293 -1.48843,0.69381 -1.47656,1.52148v15.18164c0,2.4675 2.0325,4.5 4.5,4.5h5c2.4675,0 4.5,-2.0325 4.5,-4.5v-1.05469c0.00765,-0.54095 -0.27656,-1.04412 -0.74381,-1.31683c-0.46725,-0.27271 -1.04514,-0.27271 -1.51238,0c-0.46725,0.27271 -0.75146,0.77588 -0.74381,1.31683v1.05469c0,0.8465 -0.6535,1.5 -1.5,1.5h-5c-0.8465,0 -1.5,-0.6535 -1.5,-1.5v-15.18164c0.00582,-0.40562 -0.15288,-0.7963 -0.43991,-1.08296c-0.28703,-0.28666 -0.67792,-0.44486 -1.08353,-0.43852z"></path>
</g>
</g>
</symbol>
<symbol id="sound-muted" width="48px" height="48px" viewBox="0,0,256,256">
<g fill-rule="nonzero" stroke="none" stroke-width="1" stroke-linecap="butt" stroke-linejoin="miter" stroke-miterlimit="10" stroke-dasharray="" stroke-dashoffset="0" font-family="none" font-weight="none" font-size="none" text-anchor="none" style="mix-blend-mode: normal">
<g transform="scale(5.33333,5.33333)">
<path d="M23.95313,6.15234c-0.51667,0.03843 -1.0295,0.21826 -1.47461,0.56445c-0.0206,0.01575 -0.04079,0.03203 -0.06055,0.04883l-3,2.60156c-0.00524,0.00452 -0.01045,0.00908 -0.01562,0.01367l-3.70117,3.29883c-0.00065,0.0013 -0.0013,0.0026 -0.00195,0.00391l-2.47266,2.2168h-5.72656c-2.46471,0 -4.5,2.03529 -4.5,4.5v9c0,2.46471 2.03529,4.5 4.5,4.5h5.41211c0.46669,0.19879 1.00223,0.14826 1.4235,-0.1343c0.42128,-0.28256 0.67123,-0.75888 0.66439,-1.26609v-9.40039c0.00765,-0.54095 -0.27656,-1.04412 -0.74381,-1.31683c-0.46725,-0.27271 -1.04514,-0.27271 -1.51238,0c-0.46725,0.27271 -0.75146,0.77588 -0.74381,1.31683v7.80078h-4.5c-0.93529,0 -1.5,-0.56471 -1.5,-1.5v-9c0,-0.93529 0.56471,-1.5 1.5,-1.5h6.30078c0.36908,-0.00025 0.72511,-0.13654 1,-0.38281l2.89844,-2.59961l3.69141,-3.29102l2.70898,-2.34766v29.33984l-5.3125,-4.64844c-0.40122,-0.36794 -0.97027,-0.48964 -1.48689,-0.31801c-0.51662,0.17164 -0.89971,0.60967 -1.00099,1.14455c-0.10128,0.53488 0.09516,1.08265 0.51327,1.43127l5.59961,4.90039c0.85954,0.7521 2.02691,0.85956 2.96484,0.46875c0.93794,-0.39081 1.72266,-1.41432 1.72266,-2.59766v-30.09961c0,-1.71136 -1.59648,-2.86332 -3.14648,-2.74805zM31.47266,18.23047c-0.61065,0.00015 -1.16026,0.37042 -1.38978,0.93629c-0.22952,0.56587 -0.09314,1.21439 0.34486,1.63988l3.19336,3.19336l-3.19336,3.19336c-0.37926,0.37889 -0.52757,0.93134 -0.38906,1.44924c0.13851,0.51789 0.54279,0.92255 1.06056,1.06154c0.51777,0.13899 1.07035,-0.00882 1.44959,-0.38773l3.19531,-3.19531l3.19531,3.19531c0.37924,0.37891 0.93183,0.52671 1.44959,0.38773c0.51777,-0.13899 0.92205,-0.54364 1.06056,-1.06154c0.13851,-0.51789 -0.0098,-1.07034 -0.38906,-1.44924l-3.19336,-3.19336l3.19336,-3.19336c0.37926,-0.37889 0.52757,-0.93134 0.38906,-1.44924c-0.13851,-0.51789 -0.54279,-0.92255 -1.06056,-1.06154c-0.51777,-0.13899 -1.07035,0.00882 -1.44959,0.38773l-3.19531,3.19531l-3.19531,-3.19531c-0.28281,-0.29018 -0.67097,-0.45362 -1.07617,-0.45312z"></path>
</g>
</g>
</symbol>
<symbol id="sound" width="48px" height="48px" viewBox="0,0,256,256">
<g fill-rule="nonzero" stroke="none" stroke-width="1" stroke-linecap="butt" stroke-linejoin="miter" stroke-miterlimit="10" stroke-dasharray="" stroke-dashoffset="0" font-family="none" font-weight="none" font-size="none" text-anchor="none" style="mix-blend-mode: normal">
<g transform="scale(5.33333,5.33333)">
<path d="M32.90234,6.19141c-0.51667,0.03843 -1.02755,0.21826 -1.47266,0.56445c-0.02128,0.01636 -0.04212,0.0333 -0.0625,0.05078l-3,2.59961c-0.00524,0.00452 -0.01045,0.00908 -0.01563,0.01367l-3.69922,3.30078c-0.0013,0.00065 -0.0026,0.0013 -0.00391,0.00195l-2.47266,2.2168h-5.72656c-2.46471,0 -4.5,2.03529 -4.5,4.5v9c0,2.46471 2.03529,4.5 4.5,4.5h5.41211c0.46669,0.19879 1.00223,0.14826 1.4235,-0.1343c0.42128,-0.28256 0.67123,-0.75888 0.66439,-1.26609v-9.39844c0.00765,-0.54095 -0.27656,-1.04412 -0.74381,-1.31683c-0.46725,-0.27271 -1.04514,-0.27271 -1.51238,0c-0.46725,0.27271 -0.75146,0.77588 -0.74381,1.31683v7.79883h-4.5c-0.93529,0 -1.5,-0.56471 -1.5,-1.5v-9c0,-0.93529 0.56471,-1.5 1.5,-1.5h6.30078c0.36975,0.00023 0.72656,-0.13609 1.00195,-0.38281l2.89844,-2.59766l3.68945,-3.29297l2.71094,-2.34766v29.3418l-5.3125,-4.64844c-0.40331,-0.35317 -0.96441,-0.46433 -1.4719,-0.29159c-0.50749,0.17274 -0.88427,0.60312 -0.98837,1.129c-0.1041,0.52588 0.08029,1.06735 0.4837,1.4204l5.59961,4.89844c0.85954,0.7521 2.02691,0.85956 2.96484,0.46875c0.93794,-0.39081 1.72461,-1.41432 1.72461,-2.59766v-30.09961c0,-1.71136 -1.59843,-2.86332 -3.14844,-2.74805z"></path>
</g>
</g>
</symbol>
<symbol id="no-audio" width="48px" height="48px" viewBox="0,0,256,256"><g fill-rule="nonzero" stroke="none" stroke-width="1" stroke-linecap="butt" stroke-linejoin="miter" stroke-miterlimit="10" stroke-dasharray="" stroke-dashoffset="0" font-family="none" font-weight="none" font-size="none" text-anchor="none" style="mix-blend-mode: normal"><g transform="scale(5.33333,5.33333)"><path d="M5.47461,3.98438c-0.61064,0.00015 -1.16026,0.37042 -1.38978,0.93629c-0.22952,0.56587 -0.09314,1.21439 0.34486,1.63988l8.28906,8.28906c-0.02722,0.01608 -0.05393,0.03302 -0.08008,0.05078h-5.13867c-2.46471,0 -4.5,2.03529 -4.5,4.5v9c0,2.46471 2.03529,4.5 4.5,4.5h5.34375l9.56836,8.22852h0.00195c0.8594,0.75096 2.02548,0.85934 2.96289,0.46875c0.93789,-0.39081 1.72266,-1.41432 1.72266,-2.59766v-6.6582c0.00765,-0.54095 -0.27656,-1.04412 -0.74381,-1.31683c-0.46725,-0.27271 -1.04514,-0.27271 -1.51238,0c-0.46725,0.27271 -0.75146,0.77588 -0.74381,1.31683v6.28125l-9.54492,-8.20703c-0.00259,-0.00261 -0.0052,-0.00522 -0.00781,-0.00781c-0.15005,-0.16894 -0.33633,-0.30181 -0.54492,-0.38867c-0.03083,-0.01342 -0.06209,-0.02579 -0.09375,-0.03711c-0.22991,-0.08589 -0.47738,-0.11405 -0.7207,-0.08203h-5.6875c-0.93529,0 -1.5,-0.56471 -1.5,-1.5v-9c0,-0.93529 0.56471,-1.5 1.5,-1.5h4.5v7.46094c-0.00765,0.54095 0.27656,1.04412 0.74381,1.31683c0.46725,0.27271 1.04514,0.27271 1.51238,0c0.46725,-0.27271 0.75146,-0.77588 0.74381,-1.31683v-8.03516c0.02848,-0.03714 0.0552,-0.07559 0.08008,-0.11523l26.34961,26.34961c0.37623,0.39185 0.9349,0.5497 1.46056,0.41266c0.52566,-0.13704 0.93616,-0.54754 1.0732,-1.0732c0.13704,-0.52566 -0.02081,-1.08433 -0.41266,-1.46056l-6.36328,-6.36328c1.96004,-3.85525 2.91879,-7.78397 2.8125,-11.7168c-0.00547,-0.40549 -0.17488,-0.7915 -0.46962,-1.07004c-0.29473,-0.27854 -0.68968,-0.4259 -1.09484,-0.40848c-0.82715,0.03495 -1.46962,0.73336 -1.43555,1.56055c0.08399,3.10776 -0.59341,6.21917 -2.06055,9.38672l-2.49023,-2.49023c0.04332,-0.06718 0.0812,-0.13772 0.11328,-0.21094c1.85411,-4.03541 1.85411,-8.2185 0,-12.25391c-0.25051,-0.56508 -0.82197,-0.91865 -1.43945,-0.89062c-0.50224,0.02306 -0.95954,0.29618 -1.21799,0.72744c-0.25844,0.43126 -0.28366,0.96332 -0.06717,1.41709c1.41959,3.08969 1.51964,5.88986 0.33203,8.93164l-3.07031,-3.07031v-16.08789c0,-1.71136 -1.59648,-2.86332 -3.14648,-2.74805c-0.51667,0.03843 -1.0295,0.21826 -1.47461,0.56445c-0.0206,0.01575 -0.04079,0.03203 -0.06055,0.04883l-3,2.60156c-0.00524,0.00452 -0.01045,0.00908 -0.01562,0.01367l-2.11328,1.88281c-0.40028,0.35654 -0.57991,0.89956 -0.47122,1.42447c0.10869,0.52491 0.48919,0.95195 0.99814,1.12022c0.50895,0.16827 1.06901,0.05221 1.46918,-0.30446l2.10547,-1.87695l2.70898,-2.34766v12.70898l-17.54883,-17.54883c-0.28248,-0.2909 -0.67069,-0.45506 -1.07617,-0.45508zM35.77734,11.98047c-0.52983,0.00407 -1.01822,0.28734 -1.28485,0.74521c-0.26663,0.45788 -0.27194,1.02244 -0.01398,1.48526c0.64346,1.19499 1.10895,2.39802 1.48828,3.63086c0.15208,0.51902 0.57175,0.91599 1.09841,1.03901c0.52666,0.12302 1.07877,-0.04698 1.44502,-0.44493c0.36626,-0.39795 0.48995,-0.96223 0.32376,-1.4769c-0.42066,-1.36716 -0.95635,-2.76491 -1.71289,-4.16992c-0.26015,-0.50084 -0.77939,-0.81329 -1.34375,-0.80859z"></path></g></g></symbol>
<symbol id="audio" width="48px" height="48px" viewBox="0,0,256,256"><g fill-rule="nonzero" stroke="none" stroke-width="1" stroke-linecap="butt" stroke-linejoin="miter" stroke-miterlimit="10" stroke-dasharray="" stroke-dashoffset="0" font-family="none" font-weight="none" font-size="none" text-anchor="none" style="mix-blend-mode: normal"><g transform="scale(5.33333,5.33333)"><path d="M23.95313,6.15234c-0.51667,0.03843 -1.0295,0.21826 -1.47461,0.56445c-0.0206,0.01575 -0.04079,0.03203 -0.06055,0.04883l-3,2.60156c-0.00524,0.00452 -0.01045,0.00908 -0.01562,0.01367l-2.74805,2.45117l-0.95312,0.84766c-0.00065,0.0013 -0.0013,0.0026 -0.00195,0.00391l-2.47266,2.2168h-5.72656c-2.46471,0 -4.5,2.03529 -4.5,4.5v9c0,2.46471 2.03529,4.5 4.5,4.5h5.41211c0.46669,0.19879 1.00223,0.14826 1.4235,-0.1343c0.42128,-0.28256 0.67123,-0.75888 0.66439,-1.26609v-9.40039c0.00582,-0.40562 -0.15288,-0.7963 -0.43991,-1.08296c-0.28703,-0.28666 -0.67792,-0.44486 -1.08353,-0.43852c-0.82766,0.01293 -1.48843,0.69381 -1.47656,1.52148v7.80078h-4.5c-0.93529,0 -1.5,-0.56471 -1.5,-1.5v-9c0,-0.93529 0.56471,-1.5 1.5,-1.5h6.08789c0.22053,0.02871 0.44469,0.00803 0.65625,-0.06055c0.03093,-0.00942 0.06154,-0.01985 0.0918,-0.03125c0.00065,0 0.0013,0 0.00195,0c0.24511,-0.08975 0.46256,-0.24189 0.63086,-0.44141l2.73047,-2.44922l0.95117,-0.84766l2.74023,-2.44336l2.70898,-2.34766v29.33984l-5.3125,-4.64844c-0.40122,-0.36794 -0.97027,-0.48964 -1.48689,-0.31801c-0.51662,0.17164 -0.89971,0.60967 -1.00099,1.14455c-0.10128,0.53488 0.09516,1.08265 0.51327,1.43127l5.59961,4.90039c0.85954,0.7521 2.02691,0.85956 2.96484,0.46875c0.93794,-0.39081 1.72266,-1.41432 1.72266,-2.59766v-30.09961c0,-1.71136 -1.59648,-2.86332 -3.14648,-2.74805zM35.77734,11.98047c-0.52983,0.00407 -1.01822,0.28734 -1.28485,0.74521c-0.26663,0.45788 -0.27194,1.02244 -0.01398,1.48526c0.64346,1.19499 1.10895,2.39802 1.48828,3.63086c0.15208,0.51902 0.57175,0.91599 1.09841,1.03901c0.52666,0.12302 1.07877,-0.04698 1.44502,-0.44493c0.36626,-0.39795 0.48995,-0.96223 0.32376,-1.4769c-0.42066,-1.36716 -0.95635,-2.76491 -1.71289,-4.16992c-0.26015,-0.50084 -0.77939,-0.81329 -1.34375,-0.80859zM31.12305,16.98242c-0.50224,0.02306 -0.95954,0.29618 -1.21799,0.72744c-0.25844,0.43126 -0.28366,0.96332 -0.06717,1.41709c1.54589,3.36459 1.54589,6.3815 0,9.74609c-0.24067,0.48921 -0.19697,1.07049 0.11413,1.51822c0.3111,0.44773 0.84063,0.69143 1.38307,0.63651c0.54243,-0.05492 1.01237,-0.39982 1.22741,-0.90082c1.85411,-4.03541 1.85411,-8.2185 0,-12.25391c-0.25051,-0.56508 -0.82197,-0.91865 -1.43945,-0.89062zM38.43555,21.88086c-0.82715,0.03495 -1.46962,0.73336 -1.43555,1.56055c0.0927,3.43003 -0.73285,6.8633 -2.53516,10.37305c-0.24507,0.47695 -0.21704,1.04843 0.07355,1.4991c0.29059,0.45067 0.79956,0.71205 1.33514,0.68564c0.53558,-0.02641 1.01638,-0.33658 1.26123,-0.81365c1.9977,-3.89025 2.97253,-7.8562 2.86523,-11.82617c-0.00547,-0.40549 -0.17488,-0.7915 -0.46962,-1.07004c-0.29473,-0.27854 -0.68968,-0.4259 -1.09484,-0.40848z"></path></g></g></symbol>
<symbol id='audio-medium' width="48px" height="48px" viewBox="0,0,256,256"><g fill-rule="nonzero" stroke="none" stroke-width="1" stroke-linecap="butt" stroke-linejoin="miter" stroke-miterlimit="10" stroke-dasharray="" stroke-dashoffset="0" font-family="none" font-weight="none" font-size="none" text-anchor="none" style="mix-blend-mode: normal"><g transform="scale(5.33333,5.33333)"><path d="M23.95313,6.15234c-0.51667,0.03843 -1.0295,0.21826 -1.47461,0.56445c-0.0206,0.01575 -0.04079,0.03203 -0.06055,0.04883l-3,2.60156c-0.00524,0.00452 -0.01045,0.00908 -0.01562,0.01367l-2.74805,2.45117l-0.95312,0.84766c-0.00065,0.0013 -0.0013,0.0026 -0.00195,0.00391l-2.47266,2.2168h-5.72656c-2.46471,0 -4.5,2.03529 -4.5,4.5v9c0,2.46471 2.03529,4.5 4.5,4.5h5.41211c0.46669,0.19879 1.00223,0.14826 1.4235,-0.1343c0.42128,-0.28256 0.67123,-0.75888 0.66439,-1.26609v-9.40039c0.00582,-0.40562 -0.15288,-0.7963 -0.43991,-1.08296c-0.28703,-0.28666 -0.67792,-0.44486 -1.08353,-0.43852c-0.82766,0.01293 -1.48843,0.69381 -1.47656,1.52148v7.80078h-4.5c-0.93529,0 -1.5,-0.56471 -1.5,-1.5v-9c0,-0.93529 0.56471,-1.5 1.5,-1.5h6.08789c0.22053,0.02871 0.44469,0.00803 0.65625,-0.06055c0.03093,-0.00942 0.06154,-0.01985 0.0918,-0.03125c0.00065,0 0.0013,0 0.00195,0c0.24511,-0.08975 0.46256,-0.24189 0.63086,-0.44141l2.73047,-2.44922l0.95117,-0.84766l2.74023,-2.44336l2.70898,-2.34766v29.33984l-5.3125,-4.64844c-0.40122,-0.36794 -0.97027,-0.48964 -1.48689,-0.31801c-0.51662,0.17164 -0.89971,0.60967 -1.00099,1.14455c-0.10128,0.53488 0.09516,1.08265 0.51327,1.43127l5.59961,4.90039c0.85954,0.7521 2.02691,0.85956 2.96484,0.46875c0.93794,-0.39081 1.72266,-1.41432 1.72266,-2.59766v-30.09961c0,-1.71136 -1.59648,-2.86332 -3.14648,-2.74805zM35.77734,11.98047c-0.52983,0.00407 -1.01822,0.28734 -1.28485,0.74521c-0.26663,0.45788 -0.27194,1.02244 -0.01398,1.48526c0.64346,1.19499 1.10895,2.39802 1.48828,3.63086c0.15208,0.51902 0.57175,0.91599 1.09841,1.03901c0.52666,0.12302 1.07877,-0.04698 1.44502,-0.44493c0.36626,-0.39795 0.48995,-0.96223 0.32376,-1.4769c-0.42066,-1.36716 -0.95635,-2.76491 -1.71289,-4.16992c-0.26015,-0.50084 -0.77939,-0.81329 -1.34375,-0.80859zM31.12305,16.98242c-0.50224,0.02306 -0.95954,0.29618 -1.21799,0.72744c-0.25844,0.43126 -0.28366,0.96332 -0.06717,1.41709c1.54589,3.36459 1.54589,6.3815 0,9.74609c-0.24067,0.48921 -0.19697,1.07049 0.11413,1.51822c0.3111,0.44773 0.84063,0.69143 1.38307,0.63651c0.54243,-0.05492 1.01237,-0.39982 1.22741,-0.90082c1.85411,-4.03541 1.85411,-8.2185 0,-12.25391c-0.25051,-0.56508 -0.82197,-0.91865 -1.43945,-0.89062zM38.43555,21.88086c-0.82715,0.03495 -1.46962,0.73336 -1.43555,1.56055c0.0927,3.43003 -0.73285,6.8633 -2.53516,10.37305c-0.24507,0.47695 -0.21704,1.04843 0.07355,1.4991c0.29059,0.45067 0.79956,0.71205 1.33514,0.68564c0.53558,-0.02641 1.01638,-0.33658 1.26123,-0.81365c1.9977,-3.89025 2.97253,-7.8562 2.86523,-11.82617c-0.00547,-0.40549 -0.17488,-0.7915 -0.46962,-1.07004c-0.29473,-0.27854 -0.68968,-0.4259 -1.09484,-0.40848z"></path></g></g></symbol>
<symbol id='audio-low' width="48px" height="48px" viewBox="0,0,256,256"><g fill-rule="nonzero" stroke="none" stroke-width="1" stroke-linecap="butt" stroke-linejoin="miter" stroke-miterlimit="10" stroke-dasharray="" stroke-dashoffset="0" font-family="none" font-weight="none" font-size="none" text-anchor="none" style="mix-blend-mode: normal"><g transform="scale(5.33333,5.33333)"><path d="M32.90234,6.15234c-0.51667,0.03843 -1.02755,0.21826 -1.47266,0.56445c-0.02126,0.01572 -0.0421,0.032 -0.0625,0.04883l-3,2.60156c-0.00524,0.00452 -0.01045,0.00908 -0.01563,0.01367l-3.69922,3.29883c-0.0013,0.0013 -0.00261,0.0026 -0.00391,0.00391l-2.47266,2.2168h-5.72656c-2.46471,0 -4.5,2.03529 -4.5,4.5v9c0,2.46471 2.03529,4.5 4.5,4.5h5.41211c0.46669,0.19879 1.00223,0.14826 1.4235,-0.1343c0.42128,-0.28256 0.67123,-0.75888 0.66439,-1.26609v-9.40039c0.00765,-0.54095 -0.27656,-1.04412 -0.74381,-1.31683c-0.46725,-0.27271 -1.04514,-0.27271 -1.51238,0c-0.46725,0.27271 -0.75146,0.77588 -0.74381,1.31683v7.80078h-4.5c-0.93529,0 -1.5,-0.56471 -1.5,-1.5v-9c0,-0.93529 0.56471,-1.5 1.5,-1.5h6.30078c0.36975,0.00023 0.72656,-0.13609 1.00195,-0.38281l2.89844,-2.59961l3.68945,-3.29102l2.71094,-2.34961v29.3418l-5.3125,-4.64844c-0.4033,-0.35323 -0.96443,-0.46442 -1.47195,-0.29169c-0.50753,0.17273 -0.88432,0.60314 -0.98841,1.12906c-0.10409,0.52591 0.08034,1.06741 0.48381,1.42045l5.59961,4.90039c0.85954,0.7521 2.02691,0.85956 2.96484,0.46875c0.93794,-0.39081 1.72461,-1.41432 1.72461,-2.59766v-30.09961c0,-1.71136 -1.59843,-2.86332 -3.14844,-2.74805zM40.12305,16.98242c-0.50224,0.02306 -0.95954,0.29618 -1.21799,0.72744c-0.25844,0.43126 -0.28366,0.96332 -0.06717,1.41709c1.54589,3.36459 1.54589,6.3815 0,9.74609c-0.24067,0.48921 -0.19697,1.07049 0.11413,1.51822c0.3111,0.44773 0.84063,0.69143 1.38307,0.63651c0.54243,-0.05492 1.01237,-0.39982 1.22741,-0.90082c1.85411,-4.03541 1.85411,-8.2185 0,-12.25391c-0.25051,-0.56508 -0.82197,-0.91865 -1.43945,-0.89062z"></path></g></g></symbol>
<symbol id="fullscreen" width="48px" height="48px" viewBox="0,0,256,256">
<g fill-rule="nonzero" stroke-linecap="round" stroke-linejoin="miter" stroke-miterlimit="10" stroke-dasharray="" stroke-dashoffset="0" font-family="none" font-weight="none" font-size="none" text-anchor="none" style="mix-blend-mode: normal"><g transform="scale(5.33333,5.33333)"><path d="M17.5,7.5h-6c-2.2,0 -4,1.8 -4,4v6"></path><path d="M30.5,40.5h6c2.2,0 4,-1.8 4,-4v-6"></path><path d="M40.5,17.5v-6c0,-2.2 -1.8,-4 -4,-4h-6"></path><path d="M7.5,32.4v4.1c0,2.2 1.8,4 4,4h6"></path><path d="M7.5,30.5v1.9"></path>
</g>
</g>
</symbol>
<symbol id='normal-screen' width="48px" height="48px" viewBox="0,0,256,256"><g fill-rule="nonzero" stroke-width="3" stroke-linecap="round" stroke-linejoin="miter" stroke-miterlimit="10" stroke-dasharray="" stroke-dashoffset="0" font-family="none" font-weight="none" font-size="none" text-anchor="none" style="mix-blend-mode: normal"><g transform="scale(5.33333,5.33333)"><path d="M7.5,17.5h6c2.2,0 4,-1.8 4,-4v-6"></path><path d="M40.5,30.5h-6c-2.2,0 -4,1.8 -4,4v6"></path><path d="M30.5,7.5v6c0,2.2 1.8,4 4,4h6"></path><path d="M17.5,40.5v-6c0,-2.2 -1.8,-4 -4,-4h-6"></path></g></g></symbol>
<symbol id='chevron-thin-down' width="50px" height="50px" viewBox="0,0,256,256"><g fill-rule="nonzero" stroke="none" stroke-width="1" stroke-linecap="butt" stroke-linejoin="miter" stroke-miterlimit="10" stroke-dasharray="" stroke-dashoffset="0" font-family="none" font-weight="none" font-size="none" text-anchor="none" style="mix-blend-mode: normal"><g transform="scale(5.12,5.12)"><path d="M44.98438,12.96875c-0.53125,0.01563 -1.03125,0.23438 -1.39844,0.61719l-18.58594,18.58594l-18.58594,-18.58594c-0.37891,-0.38672 -0.89453,-0.60547 -1.4375,-0.60547c-0.8125,0 -1.54297,0.49609 -1.84766,1.25c-0.30859,0.75391 -0.125,1.61719 0.45703,2.18359l20,20c0.78125,0.78125 2.04688,0.78125 2.82813,0l20,-20c0.59375,-0.57031 0.78125,-1.44922 0.46094,-2.21094c-0.31641,-0.76172 -1.06641,-1.25 -1.89062,-1.23437z"></path></g></g></symbol>
<symbol id='filter' width="48px" height="48px" viewBox="0,0,256,256"><g fill="none" fill-rule="nonzero" stroke-width="3" stroke-linecap="round" stroke-linejoin="round" stroke-miterlimit="10" stroke-dasharray="" stroke-dashoffset="0" font-family="none" font-weight="none" font-size="none" text-anchor="none" style="mix-blend-mode: normal"><g transform="scale(5.33333,5.33333)"><path d="M27.5,35.1v1.9c0,0.3 -0.2,0.6 -0.4,0.8l-5,3.6c-0.7,0.5 -1.6,0 -1.6,-0.8v-16.1"></path><path d="M27.5,24.5v5"></path><path d="M15.8,21.1l4.4,3.4h7.6l10.4,-8.2c1.4,-1.1 2.3,-2.9 2.3,-4.7v-3.1c0,-0.6 -0.4,-1 -1,-1h-31c-0.6,0 -1,0.4 -1,1v3.1c0,1.8 0.8,3.6 2.3,4.7l1.3,1"></path></g></g></symbol>
<symbol id='cart' width="48px" height="48px" viewBox="0,0,256,256">
  <g fill-rule="nonzero" stroke-width="none" stroke-linecap="none" stroke-linejoin="none" stroke-miterlimit="10" stroke-dasharray="" stroke-dashoffset="0" font-family="none" font-weight="none" font-size="none" text-anchor="none" style="mix-blend-mode: normal">
    <g transform="scale(5.33333,5.33333)">
      <path d="M31.1,32.5h-13.5c-2.4,0 -4.5,-1.7 -4.9,-4.1l-3.2,-16.9" fill="none" stroke-width="3" stroke-linecap="round" stroke-linejoin="round">
      </path>
      <path d="M17.4,11.5h23.5c1.9,0 3.3,1.7 2.9,3.6l-2.5,13.4c-0.4,2.4 -2.5,4.1 -4.9,4.1" fill="none" stroke-width="3" stroke-linecap="round" stroke-linejoin="round">
      </path>
      <path d="M9.5,11.5l-0.3,-1.6c-0.3,-1.4 -1.5,-2.4 -2.9,-2.4h-2.8" fill="none" stroke-width="3" stroke-linecap="round" stroke-linejoin="round">
      </path>
      <circle cx="20" cy="39" r="3" stroke="none" stroke-width="1" stroke-linecap="butt" stroke-linejoin="miter">
      </circle>
      <circle cx="34" cy="39" r="3" stroke="none" stroke-width="1" stroke-linecap="butt" stroke-linejoin="miter">
      </circle>
    </g>
  </g>
</symbol>
<symbol id="checkbox" width="48px" height="48px" viewBox="0,0,256,256"><g fill="none" fill-rule="nonzero" stroke-width="3" stroke-linecap="round" stroke-linejoin="round" stroke-miterlimit="10" stroke-dasharray="" stroke-dashoffset="0" font-family="none" font-weight="none" font-size="none" text-anchor="none" style="mix-blend-mode: normal">
  <g transform="scale(5.33333,5.33333)">
    <path d="M40.5,33.6v2.9c0,2.2 -1.8,4 -4,4h-25c-2.2,0 -4,-1.8 -4,-4v-15.5">
    </path>
    <path d="M7.5,15.8v-4.3c0,-2.2 1.8,-4 4,-4h25c2.2,0 4,1.8 4,4v15.7">
    </path>
    <path d="M14.5,25.5l6,6l14,-14">
    </path>
  </g>
  </g>
</symbol>
<symbol 
      id="trash-can"
      version="1.1" 
      xmlns="http://www.w3.org/2000/svg" 
      xmlns:xlink="http://www.w3.org/1999/xlink" 
      width="48px" 
      height="48px" 
      viewBox="0,0,256,256">
    <g fill="none" fill-rule="nonzero" stroke-width="3" stroke-linecap="none" stroke-linejoin="miter" stroke-miterlimit="10" stroke-dasharray="" stroke-dashoffset="0" font-family="none" font-weight="none" font-size="none" text-anchor="none" style="mix-blend-mode: normal">
      <g transform="scale(5.33333,5.33333)">
        <path d="M29.5,11.5v-0.5c0,-3 -2.5,-5.5 -5.5,-5.5c-3,0 -5.5,2.5 -5.5,5.5v0.5" stroke-linecap="butt">
          </path>
        <path d="M7.5,11.5h33" stroke-linecap="round">
          </path>
        <path d="M36.5,27l1.5,-15.5" stroke-linecap="round">
          </path>
        <path d="M10.7,18.6l2,20.3c0.2,2.1 1.9,3.6 4,3.6h14.7c2.1,0 3.8,-1.6 4,-3.6l0.5,-4.8" stroke-linecap="round">
          </path>
        </g>
    </g>
</symbol>
<symbol id="cart-empty" xmlns="http://www.w3.org/2000/svg" viewBox="0 0 45 52">
  <g fill="none" fill-rule="evenodd">
    <path d="M4.058 0C1.094 0 0 1.098 0 4.075v35.922c0 .338.013.65.043.94.068.65-.043 1.934 2.285 2.96 1.553.683 7.62 3.208 18.203 7.573 1.024.428 1.313.529 2.081.529.685.013 1.137-.099 2.072-.53 10.59-4.227 16.66-6.752 18.213-7.573 2.327-1.23 2.097-3.561 2.097-3.899V4.075C44.994 1.098 44.13 0 41.166 0H4.058z" fill="currentColor">
    </path>
    <path stroke="#FFF" stroke-width="2" stroke-linecap="round" stroke-linejoin="round" d="M14 18l4.91 2.545-2.455 4M25.544 28.705c-1.056-.131-1.806-.14-2.25-.025-.444.115-1.209.514-2.294 1.197M29.09 21.727L25 19.5l2.045-3.5">
    </path>
  </g>
</symbol>
<symbol id="window" version="1.1" xmlns="http://www.w3.org/2000/svg" xmlns:xlink="http://www.w3.org/1999/xlink" width="24px" height="24px" viewBox="0,0,256,256">
  <g fill-rule="nonzero" stroke="none" stroke-width="1" stroke-linecap="butt" stroke-linejoin="miter" stroke-miterlimit="10" stroke-dasharray="" stroke-dashoffset="0" font-family="none" font-weight="none" font-size="none" text-anchor="none" style="mix-blend-mode: normal">
    <g transform="scale(10.66667,10.66667)">
      <path d="M19.09375,2.00195c-0.14494,-0.00675 -0.29125,0.00209 -0.4375,0.02734l-5.82812,1.01563c-0.479,0.084 -0.82812,0.49838 -0.82812,0.98438v5.9707c0,0.552 0.448,1 1,1h7c0.552,0 1,-0.448 1,-1v-6c0,-0.592 -0.25989,-1.15025 -0.71289,-1.53125c-0.33975,-0.28575 -0.75855,-0.44655 -1.19336,-0.4668zM9.05469,3.72852c-0.07388,-0.00385 -0.15006,0.0003 -0.22656,0.01367l-4.17187,0.72656c-0.957,0.167 -1.65625,0.9987 -1.65625,1.9707v3.56055c0,0.552 0.448,1 1,1h5c0.552,0 1,-0.448 1,-1v-5.27344c0,-0.54338 -0.42813,-0.97109 -0.94531,-0.99805zM4,13c-0.552,0 -1,0.448 -1,1v3.56055c0,0.972 0.69825,1.8037 1.65625,1.9707l4.17188,0.72656c0.612,0.106 1.17188,-0.36338 1.17188,-0.98437v-5.27344c0,-0.552 -0.448,-1 -1,-1zM13,13c-0.552,0 -1,0.448 -1,1v5.9707c0,0.486 0.34913,0.90137 0.82813,0.98438l5.82813,1.01563c0.115,0.02 0.2307,0.03125 0.3457,0.03125c0.467,0 0.92116,-0.1647 1.28516,-0.4707c0.453,-0.382 0.71289,-0.94025 0.71289,-1.53125v-6c0,-0.552 -0.448,-1 -1,-1z">
        </path>
      </g>
    </g>
</symbol>
<symbol id="mac" version="1.1" xmlns="http://www.w3.org/2000/svg" xmlns:xlink="http://www.w3.org/1999/xlink" width="30px" height="30px" viewBox="0,0,256,256">
  <g fill-rule="nonzero" stroke="none" stroke-width="1" stroke-linecap="butt" stroke-linejoin="miter" stroke-miterlimit="10" stroke-dasharray="" stroke-dashoffset="0" font-family="none" font-weight="none" font-size="none" text-anchor="none" style="mix-blend-mode: normal">
    <g transform="scale(8.53333,8.53333)">
      <path d="M5,5c-0.07348,-0.0009 -0.14684,0.00631 -0.21875,0.02148c-1.00039,0.1104 -1.78125,0.94858 -1.78125,1.97852v16c0,1.0306 0.78188,1.869 1.7832,1.97852c0.07127,0.01503 0.14396,0.02224 0.2168,0.02148h12h8c1.09306,0 2,-0.90694 2,-2v-16c0,-1.09306 -0.90694,-2 -2,-2h-9zM14.88867,7h10.11133v16h-8.30273c-0.09386,-0.64109 -0.18865,-1.28531 -0.28906,-2.08203c-0.45,0.051 -0.9182,0.08203 -1.4082,0.08203c-4.192,0 -6.99237,-2.11703 -7.10937,-2.20703c-0.438,-0.337 -0.52059,-0.96534 -0.18359,-1.40234c0.336,-0.438 0.96239,-0.52055 1.40039,-0.18555c0.045,0.033 2.42258,1.79492 5.89258,1.79492c0.412,0 0.80364,-0.02731 1.18164,-0.07031c-0.107,-1.077 -0.18164,-2.11469 -0.18164,-2.92969h-2.31445c-0.376,0 -0.68678,-0.31441 -0.67578,-0.69141c0.10739,-3.77417 1.07235,-6.57521 1.87891,-8.30859zM16.18164,18.92969c0.066,0.662 0.14456,1.33728 0.22656,1.98828c3.4,-0.387 5.59717,-2.045 5.70117,-2.125c0.437,-0.337 0.52059,-0.96534 0.18359,-1.40234c-0.337,-0.439 -0.96534,-0.51959 -1.40234,-0.18359c-0.02,0.016 -1.85798,1.39866 -4.70898,1.72266zM20.98438,9.98633c-0.55152,0.00862 -0.99193,0.46214 -0.98437,1.01367v1c-0.0051,0.36064 0.18438,0.69608 0.49587,0.87789c0.3115,0.18181 0.69676,0.18181 1.00825,0c0.3115,-0.18181 0.50097,-0.51725 0.49587,-0.87789v-1c0.0037,-0.2703 -0.10218,-0.53059 -0.29351,-0.72155c-0.19133,-0.19097 -0.45182,-0.29634 -0.72212,-0.29212zM9,10c0.552,0 1,0.447 1,1v1c0,0.553 -0.448,1 -1,1c-0.552,0 -1,-0.447 -1,-1v-1c0,-0.553 0.448,-1 1,-1z">
        </path>
    </g>
  </g>
</symbol>
</defs>
</svg>
