<!-- <svg aria-hidden="true" style="position: absolute; width: 0; height: 0; overflow: hidden;" version="1.1" xmlns="http://www.w3.org/2000/svg" xmlns:xlink="http://www.w3.org/1999/xlink"> -->
<!--   <defs> -->
<!--     <symbol  -->
<!--       id="mastercard"  -->
<!--       xmlns="http://www.w3.org/2000/svg"  -->
<!--       xmlns:xlink="http://www.w3.org/1999/xlink"  -->
<!--       viewBox="0 0 48 48"  -->
<!--       width="48px"  -->
<!--       height="48px"> -->
<!--       <circle style="fill:#FF9800;" cx="32" cy="24" r="14"/> -->
<!--       <circle style="fill:#D50000;" cx="16" cy="24" r="14"/> -->
<!--       <path style="fill:#FF3D00;" d="M18,24c0,4.755,2.376,8.95,6,11.48c3.624-2.53,6-6.725,6-11.48s-2.376-8.95-6-11.48  C20.376,15.05,18,19.245,18,24z"/> -->
<!--     </symbol> -->
<!--     <symbol  -->
<!--       id="visa"  -->
<!--       xmlns="http://www.w3.org/2000/svg"  -->
<!--       xmlns:xlink="http://www.w3.org/1999/xlink"  -->
<!--       viewBox="0 0 48 48"  -->
<!--       width="48px"  -->
<!--       height="48px"> -->
<!--       <path fill="#1565C0" d="M45,35c0,2.209-1.791,4-4,4H7c-2.209,0-4-1.791-4-4V13c0-2.209,1.791-4,4-4h34c2.209,0,4,1.791,4,4V35z"/> -->
<!--       <g> -->
<!--         <path fill="#FFFFFF" d="M15.186,19l-2.626,7.832c0,0-0.667-3.313-0.733-3.729c-1.495-3.411-3.701-3.221-3.701-3.221L10.726,30v-0.002h3.161L18.258,19H15.186z"/> -->
<!--         <polygon fill="#FFFFFF" points="17.689,30 20.56,30 22.296,19 19.389,19 "/> -->
<!--         <path fill="#FFFFFF" d="M38.008,19h-3.021l-4.71,11h2.852l0.588-1.571h3.596L37.619,30h2.613L38.008,19z M34.513,26.328l1.563-4.157l0.818,4.157H34.513z"/> -->
<!--         <path fill="#FFFFFF" d="M26.369,22.206c0-0.606,0.498-1.057,1.926-1.057c0.928,0,1.991,0.674,1.991,0.674l0.466-2.309c0,0-1.358-0.515-2.691-0.515c-3.019,0-4.576,1.444-4.576,3.272c0,3.306,3.979,2.853,3.979,4.551c0,0.291-0.231,0.964-1.888,0.964c-1.662,0-2.759-0.609-2.759-0.609l-0.495,2.216c0,0,1.063,0.606,3.117,0.606c2.059,0,4.915-1.54,4.915-3.752C30.354,23.586,26.369,23.394,26.369,22.206z"/> -->
<!--       </g> -->
<!--       <path fill="#FFC107" d="M12.212,24.945l-0.966-4.748c0,0-0.437-1.029-1.573-1.029c-1.136,0-4.44,0-4.44,0S10.894,20.84,12.212,24.945z"/> -->
<!--     </symbol> -->
<!--   </def> -->
<!-- </svg> -->
<svg width="0" height="0" class="hidden">
  <defs>
    <symbol fill="none" xmlns="http://www.w3.org/2000/svg" viewBox="0 0 44 28" id="amex">
      <rect width="20.7785" height="28.0009" rx="2" fill="#306FCA"></rect>
      <path d="M38.7774 6.73382C38.4804 5.98013 38.2176 5.33494 37.9744 4.68275C37.8925 4.46341 37.7739 4.38408 37.5246 4.38524C35.8159 4.39574 34.1071 4.39808 32.3984 4.38408C32.0965 4.38174 32.0232 4.49141 32.0281 4.74692C32.0379 5.2871 32.0305 5.82729 31.9584 6.38381C31.6968 5.84362 31.4157 5.31277 31.1835 4.76209C31.0588 4.46574 30.8865 4.37941 30.5589 4.38408C29.2621 4.40158 27.9653 4.39808 26.6685 4.38524C26.3959 4.38174 26.2663 4.47041 26.1563 4.70725C24.6884 7.90402 23.2095 11.095 21.733 14.2871C21.5337 14.7164 21.5362 14.7176 22.0459 14.7187C23.0029 14.7187 23.9611 14.7339 24.9182 14.7106C25.2629 14.7024 25.3509 14.8167 25.3496 15.1259C25.3399 17.7755 25.3447 20.4263 25.3447 23.0758C25.3447 23.6394 25.346 23.6405 25.9437 23.6405C29.4222 23.6405 32.9008 23.6347 36.3793 23.6487C36.7839 23.6499 37.0614 23.5332 37.307 23.2357C37.6065 22.8728 37.9524 22.545 38.2641 22.1915C38.4083 22.027 38.5048 22.0106 38.6552 22.1892C38.9827 22.5753 39.3494 22.9335 39.6635 23.329C39.8652 23.5822 40.0987 23.651 40.4116 23.6464C41.4542 23.6335 42.4967 23.6522 43.5381 23.6359C43.8742 23.63 44.0197 23.7059 43.9977 24.0582C43.9671 24.5657 43.9904 25.0767 43.9891 25.5854C43.9855 27.066 43.0162 27.997 41.4713 27.9982C38.6491 28.0017 35.8256 28.0005 33.0022 28.0005H17.1862C15.9896 28.0005 15.1046 27.423 14.7917 26.4418C14.707 26.1756 14.6649 25.8987 14.6671 25.6204L14.6683 2.39484C14.6683 0.93763 15.6461 0.00193306 17.169 0.00193306C25.2775 -0.00040035 33.386 -0.00040035 41.4945 0.000766355C43.015 0.000766355 43.9867 0.939964 43.9916 2.39834C43.9928 2.9537 43.9794 3.51021 43.9977 4.0644C44.0062 4.33157 43.9036 4.39691 43.6396 4.39458C42.4637 4.38291 41.2879 4.40041 40.1133 4.38291C39.8004 4.37824 39.6391 4.45641 39.5377 4.75742C39.3225 5.39211 39.0585 6.01046 38.7774 6.73382Z" fill="black"></path>
      <path d="M38.7774 6.73382C38.4804 5.98013 38.2176 5.33494 37.9744 4.68275C37.8925 4.46341 37.7739 4.38408 37.5246 4.38524C35.8159 4.39574 34.1071 4.39808 32.3984 4.38408C32.0965 4.38174 32.0232 4.49141 32.0281 4.74692C32.0379 5.2871 32.0305 5.82729 31.9584 6.38381C31.6968 5.84362 31.4157 5.31277 31.1835 4.76209C31.0588 4.46574 30.8865 4.37941 30.5589 4.38408C29.2621 4.40158 27.9653 4.39808 26.6685 4.38524C26.3959 4.38174 26.2663 4.47041 26.1563 4.70725C24.6884 7.90402 23.2095 11.095 21.733 14.2871C21.5337 14.7164 21.5362 14.7176 22.0459 14.7187C23.0029 14.7187 23.9611 14.7339 24.9182 14.7106C25.2629 14.7024 25.3509 14.8167 25.3496 15.1259C25.3399 17.7755 25.3447 20.4263 25.3447 23.0758C25.3447 23.6394 25.346 23.6405 25.9437 23.6405C29.4222 23.6405 32.9008 23.6347 36.3793 23.6487C36.7839 23.6499 37.0614 23.5332 37.307 23.2357C37.6065 22.8728 37.9524 22.545 38.2641 22.1915C38.4083 22.027 38.5048 22.0106 38.6552 22.1892C38.9827 22.5753 39.3494 22.9335 39.6635 23.329C39.8652 23.5822 40.0987 23.651 40.4116 23.6464C41.4542 23.6335 42.4967 23.6522 43.5381 23.6359C43.8742 23.63 44.0197 23.7059 43.9977 24.0582C43.9671 24.5657 43.9904 25.0767 43.9891 25.5854C43.9855 27.066 43.0162 27.997 41.4713 27.9982C38.6491 28.0017 35.8256 28.0005 33.0022 28.0005H17.1862C15.9896 28.0005 15.1046 27.423 14.7917 26.4418C14.707 26.1756 14.6649 25.8987 14.6671 25.6204L14.6683 2.39484C14.6683 0.93763 15.6461 0.00193306 17.169 0.00193306C25.2775 -0.00040035 33.386 -0.00040035 41.4945 0.000766355C43.015 0.000766355 43.9867 0.939964 43.9916 2.39834C43.9928 2.9537 43.9794 3.51021 43.9977 4.0644C44.0062 4.33157 43.9036 4.39691 43.6396 4.39458C42.4637 4.38291 41.2879 4.40041 40.1133 4.38291C39.8004 4.37824 39.6391 4.45641 39.5377 4.75742C39.3225 5.39211 39.0585 6.01046 38.7774 6.73382Z" fill="#306FCA"></path>
      <path d="M42.0738 7.57541C41.8611 7.67692 41.8599 7.81925 41.8159 7.93009C41.1583 9.59381 40.4995 11.2587 39.8566 12.9283C39.754 13.1954 39.6244 13.3238 39.3103 13.2993C38.9596 13.2744 38.6075 13.274 38.2567 13.2981C37.9548 13.3179 37.8118 13.2164 37.7042 12.9376C37.065 11.2669 36.4037 9.60431 35.7486 7.93942C35.7034 7.82392 35.6838 7.69208 35.5482 7.59525C35.4504 7.70375 35.4883 7.83325 35.4883 7.94876C35.4858 9.60314 35.4785 11.2587 35.4956 12.9131C35.4993 13.2269 35.3929 13.3156 35.08 13.2993C34.6694 13.2771 34.2562 13.2876 33.8443 13.2958C33.6402 13.2993 33.5705 13.2211 33.5705 13.0286C33.5754 10.7372 33.5754 8.44577 33.5705 6.15437C33.5705 5.95136 33.661 5.89886 33.8553 5.90002C34.7647 5.90586 35.6728 5.90936 36.5822 5.89769C36.8267 5.89419 36.8817 6.03303 36.9489 6.2022C37.4769 7.52991 38.0098 8.85762 38.5415 10.1842C38.5586 10.2273 38.5745 10.2717 38.5965 10.3125C38.6539 10.421 38.6442 10.6123 38.7847 10.617C38.9375 10.6228 38.9302 10.4315 38.9742 10.3218C39.5181 8.96262 40.0644 7.60341 40.59 6.2372C40.6902 5.97469 40.8234 5.88719 41.1143 5.89419C41.9625 5.91072 42.8109 5.9115 43.6591 5.89652C43.9072 5.89302 43.9977 5.95953 43.9964 6.2092C43.9879 8.4656 43.9879 10.722 43.9964 12.9784C43.9977 13.2234 43.9121 13.3051 43.6615 13.2958C43.262 13.2792 42.862 13.2796 42.4625 13.2969C42.163 13.3121 42.0665 13.2164 42.0689 12.9259C42.0812 11.2949 42.075 9.66265 42.075 8.03159L42.0738 7.57541ZM27.029 18.3931C27.029 17.2941 27.0376 16.1939 27.0229 15.0948C27.0192 14.8183 27.0852 14.7121 27.4018 14.7145C29.3171 14.7273 31.2311 14.7261 33.1464 14.7156C33.4373 14.7145 33.5375 14.7973 33.518 15.0715C33.4984 15.3601 33.4984 15.6497 33.518 15.9383C33.5351 16.1997 33.4288 16.2755 33.1611 16.2732C31.9009 16.2627 30.6396 16.2767 29.3794 16.2627C29.0555 16.2592 28.904 16.3374 28.9406 16.6687C28.9638 16.8752 28.959 17.0864 28.9418 17.2929C28.9186 17.5647 29.0286 17.6522 29.3159 17.6499C30.5161 17.6371 31.7152 17.6441 32.9154 17.6452C33.3945 17.6452 33.3945 17.6464 33.3958 18.1038C33.397 18.3464 33.3823 18.5903 33.3994 18.8329C33.4178 19.099 33.3236 19.1958 33.0291 19.1923C31.8056 19.1771 30.5809 19.1946 29.3574 19.1806C29.0421 19.1771 28.937 19.2658 28.9394 19.5726C28.9443 20.5538 28.9321 20.5538 29.9637 20.5538C31.0307 20.5538 32.0965 20.5608 33.1635 20.5492C33.4324 20.5457 33.5363 20.625 33.5192 20.8852C33.4997 21.1738 33.4997 21.4634 33.5192 21.752C33.5388 22.0285 33.4337 22.109 33.1464 22.1079C31.3766 22.0962 29.608 22.102 27.8381 22.102C27.0302 22.102 27.0302 22.102 27.0302 21.3437L27.029 18.3931ZM28.7451 5.90119C29.0726 5.90119 29.4002 5.91986 29.7253 5.89536C29.993 5.87552 30.1091 5.98869 30.2093 6.2057C31.2397 8.46094 32.2774 10.7127 33.3212 12.9621C33.4349 13.2071 33.4373 13.3098 33.1098 13.2981C32.5892 13.2825 32.0683 13.2822 31.5477 13.2969C31.3314 13.3016 31.2177 13.2258 31.148 13.0309C31.0551 12.7684 30.9097 12.5222 30.829 12.2574C30.7361 11.9517 30.5613 11.8444 30.2252 11.8514C29.2083 11.8712 28.1901 11.8654 27.172 11.8549C26.9031 11.8526 26.7479 11.9342 26.6635 12.1874C26.5719 12.4616 26.4276 12.7194 26.3323 12.9924C26.2565 13.2094 26.1367 13.3063 25.8862 13.2981C25.3656 13.2851 24.8448 13.2843 24.3241 13.2958C24.1066 13.2993 24.0406 13.2479 24.1384 13.0379C25.2152 10.7255 26.2871 8.41194 27.3553 6.09603C27.4262 5.94319 27.5277 5.89536 27.6915 5.89886C28.0423 5.90586 28.3943 5.90119 28.7451 5.90119ZM28.6754 7.50191C28.3038 8.37694 27.9237 9.2578 27.557 10.1433C27.4702 10.3533 27.6609 10.3335 27.7868 10.3347C28.404 10.3382 29.0225 10.33 29.6398 10.3393C29.9355 10.344 29.96 10.2308 29.8598 9.99982C29.5249 9.2333 29.1997 8.46211 28.8697 7.69208C28.8404 7.62091 28.8257 7.53341 28.6754 7.50191ZM43.3254 14.7215C42.1716 15.8928 41.0826 17.0094 39.9764 18.1108C39.7552 18.3313 39.7332 18.4619 39.9679 18.6941C40.9909 19.7115 41.9932 20.7498 43.0003 21.7824C43.0797 21.8629 43.1934 21.9247 43.2105 22.0985C42.4466 22.0985 41.69 22.0997 40.9335 22.0974C40.7819 22.0962 40.7086 21.9714 40.6193 21.8804C39.974 21.2212 39.3237 20.5667 38.6906 19.897C38.5048 19.6998 38.3911 19.6998 38.2066 19.8935C37.5796 20.5527 36.933 21.1955 36.3047 21.8535C36.2336 21.9378 36.1426 22.0048 36.0391 22.049C35.9357 22.0932 35.8227 22.1134 35.7095 22.1079C35.0568 22.0915 34.4017 22.102 33.7453 22.102C33.7074 21.9574 33.8321 21.913 33.8969 21.8465C34.9211 20.7977 35.943 19.7453 36.9843 18.7116C37.2056 18.4923 37.1982 18.3674 36.9831 18.1516C35.9637 17.1296 34.9615 16.0924 33.9556 15.0575C33.8676 14.9677 33.7527 14.893 33.7062 14.7203C34.4787 14.7203 35.2365 14.7215 35.9931 14.7191C36.1507 14.7191 36.2241 14.83 36.3133 14.921C36.9403 15.565 37.5771 16.2009 38.1858 16.86C38.4144 17.1086 38.5488 17.1424 38.7957 16.8729C39.3934 16.2207 40.0339 15.6023 40.6438 14.9595C40.7162 14.8763 40.8082 14.8106 40.9123 14.7678C41.0164 14.725 41.1296 14.7064 41.2427 14.7133C41.9076 14.7308 42.5725 14.7215 43.3254 14.7215Z" fill="#306FCA"></path>
      <path d="M43.9668 20.3251C43.3129 19.7278 42.6504 19.1234 41.9867 18.5202C41.8975 18.4397 41.8902 18.3721 41.9794 18.2881L43.9668 16.419V20.3251Z" fill="#306FCA"></path>
    </symbol>
    <symbol fill="none" xmlns="http://www.w3.org/2000/svg" viewBox="0 0 44 28" id="jcb">
      <path d="M4.74811 0C2.0447 0 0 1.68509 0 4.60345V28H8.38976C10.5005 28 12.9412 26.0514 12.9412 23.5238V0H4.74811Z" fill="#3F51B5"></path>
      <path d="M20.2774 0C17.574 0 15.5293 1.68509 15.5293 4.60345V28H23.9191C26.0298 28 28.4705 26.0514 28.4705 23.5238V0H20.2774Z" fill="#E53935"></path>
      <path d="M35.8067 0C33.1033 0 31.0586 1.68509 31.0586 4.60345V28H39.4484C41.5591 28 43.9998 26.0514 43.9998 23.5238V0H35.8067Z" fill="#388E3C"></path>
      <path d="M11.3957 14.5765C11.3957 16.912 8.32993 18.144 6.08851 18.144C3.6504 18.144 1.4724 16.7185 1.00781 14.9049H2.65652C2.85322 16.0071 3.97781 16.7821 5.22793 16.7821C6.61263 16.7821 7.60134 15.8098 7.60134 14.5778V10.3638H11.3944L11.3957 14.5765ZM40.9015 14.0483C41.8877 14.0483 42.5774 13.0823 42.5774 12.1151C42.5774 11.1452 41.7194 10.3052 40.7333 10.3052H32.6296V17.7532H40.9015C42.0184 17.7532 42.8712 16.7898 42.8725 15.82C42.8725 14.854 42.0197 14.0483 40.9015 14.0483ZM35.7833 11.0816H38.3444C38.9966 11.0816 39.588 11.6581 39.588 12.3021C39.588 12.95 38.9966 13.5329 38.3444 13.5329H35.7833V11.0816ZM38.4078 16.982H35.7846V14.5281H38.4078C39.0652 14.5281 39.6566 15.1085 39.6566 15.7563C39.6566 16.399 39.0652 16.982 38.4078 16.982ZM26.9316 11.6785C25.42 11.3349 23.9732 11.1351 23.2498 11.1351C21.6736 11.1351 20.4273 12.4294 20.4273 14.0661C20.4273 15.7105 21.6736 17.0074 23.2498 17.0074C23.9732 17.0074 25.42 16.8712 26.9316 16.5238V17.8232H20.6227C18.6531 17.8232 17.0122 16.1152 17.0122 14.0661C17.0122 12.0209 18.6531 10.3141 20.6227 10.3141H26.9316V11.6785Z" fill="#FAFAFA"></path>
    </symbol>
    <symbol fill="none" xmlns="http://www.w3.org/2000/svg" viewBox="0 0 44 28" id="discover">
      <g clip-path="url(#clip0_406_14)">
        <path d="M44 24.2667C44 26.32 42.1143 28 39.8095 28H4.19048C1.88571 28 0 26.32 0 24.2667V3.73333C0 1.68 1.88571 0 4.19048 0H39.8095C42.1143 0 44 1.68 44 3.73333V24.2667Z" fill="#E1E7EA"></path>
        <path d="M44.0001 24.2667C44.0001 26.32 42.1144 28 39.8096 28H13.6191C13.6191 28 38.343 24.4533 44.0001 14V24.2667ZM19.9049 14C19.9049 15.5867 21.2668 16.8 23.0477 16.8C24.8287 16.8 26.1906 15.5867 26.1906 14C26.1906 12.4133 24.8287 11.2 23.0477 11.2C21.2668 11.2 19.9049 12.4133 19.9049 14Z" fill="#FF6D00"></path>
        <path d="M8.59069 11.2H9.74307V16.8H8.59069V11.2ZM14.8764 14C14.8764 15.5867 16.2383 16.8 18.0193 16.8C18.5431 16.8 18.9621 16.7067 19.4859 16.52V15.3067C19.0669 15.68 18.6478 15.8667 18.0193 15.8667C16.8669 15.8667 16.0288 15.12 16.0288 14C16.0288 12.9734 16.8669 12.1334 18.0193 12.1334C18.5431 12.1334 18.9621 12.32 19.4859 12.6934V11.48C18.9621 11.2934 18.5431 11.1067 18.0193 11.1067C16.2383 11.2 14.8764 12.5067 14.8764 14ZM28.9145 14.84L27.2383 11.2H25.9812L28.6002 16.8H29.2288L31.8478 11.2H30.5907L28.9145 14.84ZM32.3716 16.8H35.724V15.8667H33.524V14.3734H35.6193V13.44H33.524V12.1334H35.724V11.2H32.3716V16.8ZM40.3335 12.88C40.3335 11.8534 39.6002 11.2 38.2383 11.2H36.4574V16.8H37.6097V14.56H37.7145L39.3907 16.8H40.8574L38.9716 14.4667C39.8097 14.28 40.3335 13.72 40.3335 12.88ZM37.924 13.8134H37.6097V12.1334H37.924C38.6574 12.1334 39.0764 12.4134 39.0764 12.9734C39.0764 13.44 38.7621 13.8134 37.924 13.8134ZM4.92402 11.2H3.14307V16.8H4.81926C7.4383 16.8 8.06688 14.84 8.06688 14C8.17164 12.32 6.80973 11.2 4.92402 11.2ZM4.60973 15.8667H4.29545V12.1334H4.7145C6.28592 12.1334 6.9145 13.0667 6.9145 14C6.9145 14.3734 6.80973 15.8667 4.60973 15.8667ZM12.8859 13.3467C12.1526 13.0667 11.9431 12.9734 11.9431 12.6934C11.9431 12.32 12.3621 12.1334 12.7812 12.1334C13.0954 12.1334 13.4097 12.2267 13.724 12.6L14.3526 11.8534C13.8288 11.3867 13.305 11.2 12.5716 11.2C11.524 11.2 10.6859 11.8534 10.6859 12.7867C10.6859 13.5334 11.105 13.9067 12.1526 14.28C12.7812 14.4667 13.305 14.6534 13.305 15.12C13.305 15.5867 12.8859 15.8667 12.3621 15.8667C11.8383 15.8667 11.3145 15.5867 11.105 15.12L10.3716 15.7734C10.8954 16.52 11.524 16.8 12.4669 16.8C13.724 16.8 14.5621 16.0534 14.5621 15.0267C14.5621 14.1867 14.1431 13.8134 12.8859 13.3467Z" fill="black"></path>
      </g>
      <defs>
        <clipPath id="clip0_406_14">
          <rect width="44" height="28" fill="white"></rect>
        </clipPath>
      </defs>
    </symbol>
    <symbol fill="none" xmlns="http://www.w3.org/2000/svg" viewBox="0 0 44 28" id="mastercard">
      <g clip-path="url(#clip0_406_10)">
        <path d="M30 28C37.732 28 44 21.732 44 14C44 6.26801 37.732 0 30 0C22.268 0 16 6.26801 16 14C16 21.732 22.268 28 30 28Z" fill="#FF9800"></path>
        <path d="M14 28C21.732 28 28 21.732 28 14C28 6.26801 21.732 0 14 0C6.26801 0 0 6.26801 0 14C0 21.732 6.26801 28 14 28Z" fill="#D50000"></path>
        <path d="M16 14C16 18.755 18.376 22.95 22 25.48C25.624 22.95 28 18.755 28 14C28 9.24502 25.624 5.05002 22 2.52002C18.376 5.05002 16 9.24502 16 14Z" fill="#FF3D00"></path>
      </g>
      <defs>
        <clipPath id="clip0_406_10">
          <rect width="44" height="28" fill="white"></rect>
        </clipPath>
      </defs>
    </symbol>
    <symbol fill="none" xmlns="http://www.w3.org/2000/svg" viewBox="0 0 44 28" id="visa">
      <g clip-path="url(#clip0_406_2)">
        <path d="M44 24.2667C44 26.3284 42.1237 28 39.8095 28H4.19048C1.87629 28 0 26.3284 0 24.2667V3.73333C0 1.6716 1.87629 0 4.19048 0H39.8095C42.1237 0 44 1.6716 44 3.73333V24.2667Z" fill="#1565C0"></path>
        <path d="M12.7663 9.33337L10.0153 16.6432C10.0153 16.6432 9.3165 13.5511 9.24735 13.1628C7.68116 9.97924 5.37012 10.1566 5.37012 10.1566L8.09393 19.6V19.5982H11.4055L15.9846 9.33337H12.7663Z" fill="white"></path>
        <path d="M15.3887 19.6H18.3964L20.2151 9.33337H17.1696L15.3887 19.6Z" fill="white"></path>
        <path d="M36.6753 9.33337H33.5105L28.5762 19.6H31.564L32.18 18.1338H35.9472L36.2678 19.6H39.0052L36.6753 9.33337ZM33.0139 16.1728L34.6513 12.293L35.5083 16.1728H33.0139Z" fill="white"></path>
        <path d="M24.4819 12.3256C24.4819 11.76 25.0036 11.3391 26.4996 11.3391C27.4718 11.3391 28.5854 11.9681 28.5854 11.9681L29.0736 9.81306C29.0736 9.81306 27.6509 9.3324 26.2545 9.3324C23.0917 9.3324 21.4606 10.6801 21.4606 12.3863C21.4606 15.4719 25.629 15.0491 25.629 16.6339C25.629 16.9055 25.387 17.5336 23.6511 17.5336C21.91 17.5336 20.7608 16.9652 20.7608 16.9652L20.2422 19.0335C20.2422 19.0335 21.3558 19.5991 23.5076 19.5991C25.6647 19.5991 28.6567 18.1617 28.6567 16.0972C28.6567 13.6136 24.4819 13.4344 24.4819 12.3256Z" fill="white"></path>
        <path d="M9.65069 14.882L8.63869 10.4505C8.63869 10.4505 8.18088 9.49011 6.99078 9.49011C5.80069 9.49011 2.33936 9.49011 2.33936 9.49011C2.33936 9.49011 8.26993 11.0506 9.65069 14.882Z" fill="#FFC107"></path>
      </g>
      <defs>
        <clipPath id="clip0_406_2">
          <rect width="44" height="28" fill="white"></rect>
        </clipPath>
      </defs>
    </symbol>
  </defs>
</svg>
