<svg xmlns="http://www.w3.org/2000/svg" xmlns:xlink="http://www.w3.org/1999/xlink" viewBox="0,0,256,256" width="48px" height="48px" fill-rule="nonzero"><defs><clipPath id="clip-1"><path d="M0,256v-256h256v256h-41.7748c19.5209,-10.61029 32.83541,-31.313 32.83541,-55c0,-1.93939 -0.48485,-4.36364 -0.48485,-6.30303c0.9697,-1.93939 1.45455,-3.87879 1.45455,-6.30303v-23.27273c0,-7.75758 -6.30303,-14.06061 -14.06061,-14.06061c-3.39394,0 -6.30303,0.9697 -8.72727,2.90909c-6.30303,-5.33333 -13.09091,-9.21212 -20.84848,-12.12121c-1.93939,-0.9697 -3.87879,-1.45455 -5.81818,-1.93939h-0.48485c-1.93939,-0.48485 -3.87879,-0.48485 -5.81818,-0.9697c0,0 -0.48485,0 -0.9697,0c-2.42424,-0.48485 -4.36364,-0.48485 -6.78788,-0.48485c-34.42424,0 -62.54545,28.12121 -62.54545,62.54545v0.48485c0,1.93939 0,3.87879 0.48485,6.30303c0,0.48485 0,0.48485 0,0.9697c0.48485,1.93939 0.48485,3.87879 0.9697,5.33333v0.48485c4.0224,17.94608 15.94316,32.93028 31.60389,41.42424z" id="overlayBgMask" fill="none" stroke="none" stroke-width="1" stroke-linecap="butt" stroke-linejoin="miter"></path></clipPath></defs><g clip-path="url(#clip-1)" fill="none" fill-rule="nonzero" stroke="none" stroke-width="none" stroke-linecap="none" stroke-linejoin="none" stroke-miterlimit="10" stroke-dasharray="" stroke-dashoffset="0" font-family="none" font-weight="none" font-size="none" text-anchor="none" style="mix-blend-mode: normal"><g transform="scale(5.33333,5.33333)"><circle cx="17" cy="30" r="2" fill="#000000" stroke="none" stroke-width="1" stroke-linecap="butt" stroke-linejoin="miter"></circle><circle cx="24" cy="30" r="2" fill="#000000" stroke="none" stroke-width="1" stroke-linecap="butt" stroke-linejoin="miter"></circle><circle cx="31" cy="30" r="2" fill="#000000" stroke="none" stroke-width="1" stroke-linecap="butt" stroke-linejoin="miter"></circle><path d="M17.5,17.5c0,0 0,-1.9 0,-5.5c0,-3.6 2.9,-6.5 6.5,-6.5c3.6,0 6.5,2.9 6.5,6.5c0,2 0,5.5 0,5.5" fill="none" stroke="#000000" stroke-width="3" stroke-linecap="butt" stroke-linejoin="miter"></path><path d="M23.9,42.5h-11.4c-1.7,0 -3,-1.3 -3,-3v-19c0,-1.7 1.3,-3 3,-3h5" fill="none" stroke="#000000" stroke-width="3" stroke-linecap="round" stroke-linejoin="round"></path><path d="M24,17.5h11.5c1.7,0 3,1.3 3,3v19c0,1.7 -1.3,3 -3,3h-5" fill="none" stroke="#000000" stroke-width="3" stroke-linecap="round" stroke-linejoin="round"></path></g></g><g fill="#000000" fill-rule="nonzero" stroke="none" stroke-width="1" stroke-linecap="butt" stroke-linejoin="miter" stroke-miterlimit="10" stroke-dasharray="" stroke-dashoffset="0" font-family="none" font-weight="none" font-size="none" text-anchor="none" style="mix-blend-mode: normal"><g transform="translate(131.66667,148.15152) scale(4.84848,4.84848)" id="overlay"><path d="M22,3.4v4.8c0,0.5 -0.4,0.9 -0.9,0.9h-4.8c-0.8,0 -1.2,-0.9 -0.6,-1.5l1.5,-1.5c-1.5,-2 -3.8,-3.2 -6.3,-3.2c-4.4,0.1 -7.9,3.6 -7.9,8c0,4.3 3.5,7.9 7.9,7.9c2.4,0 4.7,-1.1 6.2,-3c0.5,-0.7 1.5,-0.8 2.1,-0.3c0.7,0.5 0.8,1.5 0.3,2.1c-2.1,2.6 -5.2,4.2 -8.6,4.2c-6,0 -10.9,-4.9 -10.9,-10.9c0,-6 4.9,-10.9 10.9,-10.9c3.3,0 6.4,1.5 8.4,4l1.2,-1.2c0.6,-0.5 1.5,-0.1 1.5,0.6z"></path></g></g></svg>