<!--
 Remix Icon v2.5.0
 https://remixicon.com
 https://github.com/Remix-Design/RemixIcon

 Copyright RemixIcon.com
 Released under the Apache License Version 2.0

 Date: 2020-05-23
-->
<svg xmlns="http://www.w3.org/2000/svg" xlink="http://www.w3.org/1999/xlink" width="0" height="0" style="display:none;">
<symbol viewBox="0 0 24 24" id="ri-lock-password-fill">
    <g>
        <path fill="none" d="M0 0h24v24H0z"/>
        <path d="M18 8h2a1 1 0 0 1 1 1v12a1 1 0 0 1-1 1H4a1 1 0 0 1-1-1V9a1 1 0 0 1 1-1h2V7a6 6 0 1 1 12 0v1zm-2 0V7a4 4 0 1 0-8 0v1h8zm-5 6v2h2v-2h-2zm-4 0v2h2v-2H7zm8 0v2h2v-2h-2z"/>
    </g>
</symbol><symbol viewBox="0 0 24 24" id="ri-lock-password-line">
    <g>
        <path fill="none" d="M0 0h24v24H0z"/>
        <path d="M18 8h2a1 1 0 0 1 1 1v12a1 1 0 0 1-1 1H4a1 1 0 0 1-1-1V9a1 1 0 0 1 1-1h2V7a6 6 0 1 1 12 0v1zM5 10v10h14V10H5zm6 4h2v2h-2v-2zm-4 0h2v2H7v-2zm8 0h2v2h-2v-2zm1-6V7a4 4 0 1 0-8 0v1h8z"/>
    </g>
</symbol>
<symbol viewBox="0 0 24 24" id="ri-eye-fill">
    <g>
        <path fill="none" d="M0 0h24v24H0z"/>
        <path d="M1.181 12C2.121 6.88 6.608 3 12 3c5.392 0 9.878 3.88 10.819 9-.94 5.12-5.427 9-10.819 9-5.392 0-9.878-3.88-10.819-9zM12 17a5 5 0 1 0 0-10 5 5 0 0 0 0 10zm0-2a3 3 0 1 1 0-6 3 3 0 0 1 0 6z"/>
    </g>
</symbol><symbol viewBox="0 0 24 24" id="ri-eye-line">
    <g>
        <path fill="none" d="M0 0h24v24H0z"/>
        <path d="M12 3c5.392 0 9.878 3.88 10.819 9-.94 5.12-5.427 9-10.819 9-5.392 0-9.878-3.88-10.819-9C2.121 6.88 6.608 3 12 3zm0 16a9.005 9.005 0 0 0 8.777-7 9.005 9.005 0 0 0-17.554 0A9.005 9.005 0 0 0 12 19zm0-2.5a4.5 4.5 0 1 1 0-9 4.5 4.5 0 0 1 0 9zm0-2a2.5 2.5 0 1 0 0-5 2.5 2.5 0 0 0 0 5z"/>
    </g>
</symbol><symbol viewBox="0 0 24 24" id="ri-eye-off-fill">
    <g>
        <path fill="none" d="M0 0h24v24H0z"/>
        <path d="M4.52 5.934L1.393 2.808l1.415-1.415 19.799 19.8-1.415 1.414-3.31-3.31A10.949 10.949 0 0 1 12 21c-5.392 0-9.878-3.88-10.819-9a10.982 10.982 0 0 1 3.34-6.066zm10.237 10.238l-1.464-1.464a3 3 0 0 1-4.001-4.001L7.828 9.243a5 5 0 0 0 6.929 6.929zM7.974 3.76C9.221 3.27 10.58 3 12 3c5.392 0 9.878 3.88 10.819 9a10.947 10.947 0 0 1-2.012 4.592l-3.86-3.86a5 5 0 0 0-5.68-5.68L7.974 3.761z"/>
    </g>
</symbol><symbol viewBox="0 0 24 24" id="ri-eye-off-line">
    <g>
        <path fill="none" d="M0 0h24v24H0z"/>
        <path d="M17.882 19.297A10.949 10.949 0 0 1 12 21c-5.392 0-9.878-3.88-10.819-9a10.982 10.982 0 0 1 3.34-6.066L1.392 2.808l1.415-1.415 19.799 19.8-1.415 1.414-3.31-3.31zM5.935 7.35A8.965 8.965 0 0 0 3.223 12a9.005 9.005 0 0 0 13.201 5.838l-2.028-2.028A4.5 4.5 0 0 1 8.19 9.604L5.935 7.35zm6.979 6.978l-3.242-3.242a2.5 2.5 0 0 0 3.241 3.241zm7.893 2.264l-1.431-1.43A8.935 8.935 0 0 0 20.777 12 9.005 9.005 0 0 0 9.552 5.338L7.974 3.76C9.221 3.27 10.58 3 12 3c5.392 0 9.878 3.88 10.819 9a10.947 10.947 0 0 1-2.012 4.592zm-9.084-9.084a4.5 4.5 0 0 1 4.769 4.769l-4.77-4.769z"/>
    </g>
</symbol>
<symbol viewBox="0 0 24 24" id="ri-check-fill">
    <g>
        <path fill="none" d="M0 0h24v24H0z"/>
        <path d="M10 15.172l9.192-9.193 1.415 1.414L10 18l-6.364-6.364 1.414-1.414z"/>
    </g>
</symbol><symbol viewBox="0 0 24 24" id="ri-check-line">
    <g>
        <path fill="none" d="M0 0h24v24H0z"/>
        <path d="M10 15.172l9.192-9.193 1.415 1.414L10 18l-6.364-6.364 1.414-1.414z"/>
    </g>
</symbol>
<symbol viewBox="0 0 24 24" id="ri-loader-4-fill">
    <g>
        <path fill="none" d="M0 0h24v24H0z"/>
        <path d="M18.364 5.636L16.95 7.05A7 7 0 1 0 19 12h2a9 9 0 1 1-2.636-6.364z"/>
    </g>
</symbol><symbol viewBox="0 0 24 24" id="ri-loader-4-line">
    <g>
        <path fill="none" d="M0 0h24v24H0z"/>
        <path d="M18.364 5.636L16.95 7.05A7 7 0 1 0 19 12h2a9 9 0 1 1-2.636-6.364z"/>
    </g>
</symbol>
</svg>
