<svg xmlns="http://www.w3.org/2000/svg" xlink="http://www.w3.org/1999/xlink" width="0" height="0" style="display:none;">
<symbol viewBox="0 0 24 24" id="ri-play-fill">
    <g>
        <path fill="none" d="M0 0h24v24H0z"/>
        <path d="M19.376 12.416L8.777 19.482A.5.5 0 0 1 8 19.066V4.934a.5.5 0 0 1 .777-.416l10.599 7.066a.5.5 0 0 1 0 .832z"/>
    </g>
</symbol>
<symbol viewBox="0 0 24 24" id="ri-pause-fill">
    <g>
        <path fill="none" d="M0 0h24v24H0z"/>
        <path d="M6 5h2v14H6V5zm10 0h2v14h-2V5z"/>
    </g>
</symbol>
<symbol viewBox="0 0 24 24" id="ri-volume-up-fill">
    <g>
        <path fill="none" d="M0 0h24v24H0z"/>
        <path d="M5.889 16H2a1 1 0 0 1-1-1V9a1 1 0 0 1 1-1h3.889l5.294-4.332a.5.5 0 0 1 .817.387v15.89a.5.5 0 0 1-.817.387L5.89 16zm13.517 4.134l-1.416-1.416A8.978 8.978 0 0 0 21 12a8.982 8.982 0 0 0-3.304-6.968l1.42-1.42A10.976 10.976 0 0 1 23 12c0 3.223-1.386 6.122-3.594 8.134zm-3.543-3.543l-1.422-1.422A3.993 3.993 0 0 0 16 12c0-1.43-.75-2.685-1.88-3.392l1.439-1.439A5.991 5.991 0 0 1 18 12c0 1.842-.83 3.49-2.137 4.591z"/>
    </g>
</symbol><symbol viewBox="0 0 24 24" id="ri-volume-up-line">
    <g>
        <path fill="none" d="M0 0h24v24H0z"/>
        <path d="M10 7.22L6.603 10H3v4h3.603L10 16.78V7.22zM5.889 16H2a1 1 0 0 1-1-1V9a1 1 0 0 1 1-1h3.889l5.294-4.332a.5.5 0 0 1 .817.387v15.89a.5.5 0 0 1-.817.387L5.89 16zm13.517 4.134l-1.416-1.416A8.978 8.978 0 0 0 21 12a8.982 8.982 0 0 0-3.304-6.968l1.42-1.42A10.976 10.976 0 0 1 23 12c0 3.223-1.386 6.122-3.594 8.134zm-3.543-3.543l-1.422-1.422A3.993 3.993 0 0 0 16 12c0-1.43-.75-2.685-1.88-3.392l1.439-1.439A5.991 5.991 0 0 1 18 12c0 1.842-.83 3.49-2.137 4.591z"/>
    </g>
</symbol>
<symbol viewBox="0 0 24 24" id="ri-volume-down-fill">
    <g>
        <path fill="none" d="M0 0h24v24H0z"/>
        <path d="M8.889 16H5a1 1 0 0 1-1-1V9a1 1 0 0 1 1-1h3.889l5.294-4.332a.5.5 0 0 1 .817.387v15.89a.5.5 0 0 1-.817.387L8.89 16zm9.974.591l-1.422-1.422A3.993 3.993 0 0 0 19 12c0-1.43-.75-2.685-1.88-3.392l1.439-1.439A5.991 5.991 0 0 1 21 12c0 1.842-.83 3.49-2.137 4.591z"/>
    </g>
</symbol><symbol viewBox="0 0 24 24" id="ri-volume-down-line">
    <g>
        <path fill="none" d="M0 0h24v24H0z"/>
        <path d="M13 7.22L9.603 10H6v4h3.603L13 16.78V7.22zM8.889 16H5a1 1 0 0 1-1-1V9a1 1 0 0 1 1-1h3.889l5.294-4.332a.5.5 0 0 1 .817.387v15.89a.5.5 0 0 1-.817.387L8.89 16zm9.974.591l-1.422-1.422A3.993 3.993 0 0 0 19 12c0-1.43-.75-2.685-1.88-3.392l1.439-1.439A5.991 5.991 0 0 1 21 12c0 1.842-.83 3.49-2.137 4.591z"/>
    </g>
</symbol><symbol viewBox="0 0 24 24" id="ri-volume-mute-fill">
    <g>
        <path fill="none" d="M0 0h24v24H0z"/>
        <path d="M5.889 16H2a1 1 0 0 1-1-1V9a1 1 0 0 1 1-1h3.889l5.294-4.332a.5.5 0 0 1 .817.387v15.89a.5.5 0 0 1-.817.387L5.89 16zm14.525-4l3.536 3.536-1.414 1.414L19 13.414l-3.536 3.536-1.414-1.414L17.586 12 14.05 8.464l1.414-1.414L19 10.586l3.536-3.536 1.414 1.414L20.414 12z"/>
    </g>
</symbol><symbol viewBox="0 0 24 24" id="ri-volume-mute-line">
    <g>
        <path fill="none" d="M0 0h24v24H0z"/>
        <path d="M10 7.22L6.603 10H3v4h3.603L10 16.78V7.22zM5.889 16H2a1 1 0 0 1-1-1V9a1 1 0 0 1 1-1h3.889l5.294-4.332a.5.5 0 0 1 .817.387v15.89a.5.5 0 0 1-.817.387L5.89 16zm14.525-4l3.536 3.536-1.414 1.414L19 13.414l-3.536 3.536-1.414-1.414L17.586 12 14.05 8.464l1.414-1.414L19 10.586l3.536-3.536 1.414 1.414L20.414 12z"/>
    </g>
</symbol>
<symbol viewBox="0 0 24 24" id="ri-fullscreen-exit-fill">
    <g>
        <path fill="none" d="M0 0h24v24H0z"/>
        <path d="M18 7h4v2h-6V3h2v4zM8 9H2V7h4V3h2v6zm10 8v4h-2v-6h6v2h-4zM8 15v6H6v-4H2v-2h6z"/>
    </g>
</symbol><symbol viewBox="0 0 24 24" id="ri-fullscreen-exit-line">
    <g>
        <path fill="none" d="M0 0h24v24H0z"/>
        <path d="M18 7h4v2h-6V3h2v4zM8 9H2V7h4V3h2v6zm10 8v4h-2v-6h6v2h-4zM8 15v6H6v-4H2v-2h6z"/>
    </g>
</symbol><symbol viewBox="0 0 24 24" id="ri-fullscreen-fill">
    <g>
        <path fill="none" d="M0 0h24v24H0z"/>
        <path d="M16 3h6v6h-2V5h-4V3zM2 3h6v2H4v4H2V3zm18 16v-4h2v6h-6v-2h4zM4 19h4v2H2v-6h2v4z"/>
    </g>
</symbol><symbol viewBox="0 0 24 24" id="ri-fullscreen-line">
    <g>
        <path fill="none" d="M0 0h24v24H0z"/>
        <path d="M20 3h2v6h-2V5h-4V3h4zM4 3h4v2H4v4H2V3h2zm16 16v-4h2v6h-6v-2h4zM4 19h4v2H2v-6h2v4z"/>
    </g>
</symbol>
</svg>
