<!--
 Remix Icon v2.5.0
 https://remixicon.com
 https://github.com/Remix-Design/RemixIcon

 Copyright RemixIcon.com
 Released under the Apache License Version 2.0

 Date: 2020-05-23
-->
<svg xmlns="http://www.w3.org/2000/svg" xlink="http://www.w3.org/1999/xlink" width="0" height="0" style="display:none;">
<symbol viewBox="0 0 24 24" id="ri-user-fill">
    <g>
        <path fill="none" d="M0 0h24v24H0z"/>
        <path d="M4 22a8 8 0 1 1 16 0H4zm8-9c-3.315 0-6-2.685-6-6s2.685-6 6-6 6 2.685 6 6-2.685 6-6 6z"/>
    </g>
</symbol>
<symbol viewBox="0 0 24 24" id="ri-user-line">
    <g>
        <path fill="none" d="M0 0h24v24H0z"/>
        <path d="M4 22a8 8 0 1 1 16 0h-2a6 6 0 1 0-12 0H4zm8-9c-3.315 0-6-2.685-6-6s2.685-6 6-6 6 2.685 6 6-2.685 6-6 6zm0-2c2.21 0 4-1.79 4-4s-1.79-4-4-4-4 1.79-4 4 1.79 4 4 4z"/>
    </g>
</symbol>
<symbol viewBox="0 0 24 24" id="ri-robot-fill">
    <g>
        <path fill="none" d="M0 0h24v24H0z"/>
        <path d="M13 4.055c4.5.497 8 4.312 8 8.945v9H3v-9c0-4.633 3.5-8.448 8-8.945V1h2v3.055zM12 18a5 5 0 1 0 0-10 5 5 0 0 0 0 10zm0-2a3 3 0 1 1 0-6 3 3 0 0 1 0 6zm0-2a1 1 0 1 0 0-2 1 1 0 0 0 0 2z"/>
    </g>
</symbol><symbol viewBox="0 0 24 24" id="ri-robot-line">
    <g>
        <path fill="none" d="M0 0h24v24H0z"/>
        <path fill-rule="nonzero" d="M13 4.055c4.5.497 8 4.312 8 8.945v9H3v-9c0-4.633 3.5-8.448 8-8.945V1h2v3.055zM19 20v-7a7 7 0 0 0-14 0v7h14zm-7-2a5 5 0 1 1 0-10 5 5 0 0 1 0 10zm0-2a3 3 0 1 0 0-6 3 3 0 0 0 0 6zm0-2a1 1 0 1 1 0-2 1 1 0 0 1 0 2z"/>
    </g>
</symbol>
<symbol viewBox="0 0 24 24" id="ri-robot-2-fill">
    <g>
      <path d="M13.5 2C13.5 2.44425 13.3069 2.84339 13 3.11805V5H18C19.6569 5 21 6.34315 21 8V18C21 19.6569 19.6569 21 18 21H6C4.34315 21 3 19.6569 3 18V8C3 6.34315 4.34315 5 6 5H11V3.11805C10.6931 2.84339 10.5 2.44425 10.5 2C10.5 1.17157 11.1716 0.5 12 0.5C12.8284 0.5 13.5 1.17157 13.5 2ZM0 10H2V16H0V10ZM24 10H22V16H24V10ZM9 14.5C9.82843 14.5 10.5 13.8284 10.5 13C10.5 12.1716 9.82843 11.5 9 11.5C8.17157 11.5 7.5 12.1716 7.5 13C7.5 13.8284 8.17157 14.5 9 14.5ZM16.5 13C16.5 12.1716 15.8284 11.5 15 11.5C14.1716 11.5 13.5 12.1716 13.5 13C13.5 13.8284 14.1716 14.5 15 14.5C15.8284 14.5 16.5 13.8284 16.5 13Z"/>
    </g>
</symbol>
<symbol viewBox="0 0 24 24" id="ri-robot-2-line">
    <g>
      <path d="M13.5 2C13.5 2.44425 13.3069 2.84339 13 3.11805V5H18C19.6569 5 21 6.34315 21 8V18C21 19.6569 19.6569 21 18 21H6C4.34315 21 3 19.6569 3 18V8C3 6.34315 4.34315 5 6 5H11V3.11805C10.6931 2.84339 10.5 2.44425 10.5 2C10.5 1.17157 11.1716 0.5 12 0.5C12.8284 0.5 13.5 1.17157 13.5 2ZM6 7C5.44772 7 5 7.44772 5 8V18C5 18.5523 5.44772 19 6 19H18C18.5523 19 19 18.5523 19 18V8C19 7.44772 18.5523 7 18 7H13H11H6ZM2 10H0V16H2V10ZM22 10H24V16H22V10ZM9 14.5C9.82843 14.5 10.5 13.8284 10.5 13C10.5 12.1716 9.82843 11.5 9 11.5C8.17157 11.5 7.5 12.1716 7.5 13C7.5 13.8284 8.17157 14.5 9 14.5ZM15 14.5C15.8284 14.5 16.5 13.8284 16.5 13C16.5 12.1716 15.8284 11.5 15 11.5C14.1716 11.5 13.5 12.1716 13.5 13C13.5 13.8284 14.1716 14.5 15 14.5Z"/>
    </g>
</symbol>
</svg>
