<!--
 Remix Icon v2.5.0
 https://remixicon.com
 https://github.com/Remix-Design/RemixIcon

 Copyright RemixIcon.com
 Released under the Apache License Version 2.0

 Date: 2020-05-23
-->
<svg xmlns="http://www.w3.org/2000/svg" xlink="http://www.w3.org/1999/xlink" width="0" height="0" style="display:none;">
<symbol viewBox="0 0 24 24" id="ri-mail-add-fill">
    <g>
        <path fill="none" d="M0 0h24v24H0z"/>
        <path d="M22 13.341A6 6 0 0 0 14.341 21H3a1 1 0 0 1-1-1V4a1 1 0 0 1 1-1h18a1 1 0 0 1 1 1v9.341zm-9.94-1.658L5.648 6.238 4.353 7.762l7.72 6.555 7.581-6.56-1.308-1.513-6.285 5.439zM21 18h3v2h-3v3h-2v-3h-3v-2h3v-3h2v3z"/>
    </g>
</symbol><symbol viewBox="0 0 24 24" id="ri-mail-add-line">
    <g>
        <path fill="none" d="M0 0h24v24H0z"/>
        <path d="M22 13h-2V7.238l-7.928 7.1L4 7.216V19h10v2H3a1 1 0 0 1-1-1V4a1 1 0 0 1 1-1h18a1 1 0 0 1 1 1v9zM4.511 5l7.55 6.662L19.502 5H4.511zM21 18h3v2h-3v3h-2v-3h-3v-2h3v-3h2v3z"/>
    </g>
</symbol><symbol viewBox="0 0 24 24" id="ri-mail-check-fill">
    <g>
        <path fill="none" d="M0 0h24v24H0z"/>
        <path d="M22 13.341A6 6 0 0 0 14.341 21H3a1 1 0 0 1-1-1V4a1 1 0 0 1 1-1h18a1 1 0 0 1 1 1v9.341zm-9.94-1.658L5.648 6.238 4.353 7.762l7.72 6.555 7.581-6.56-1.308-1.513-6.285 5.439zM19 22l-3.536-3.536 1.415-1.414L19 19.172l3.536-3.536 1.414 1.414L19 22z"/>
    </g>
</symbol><symbol viewBox="0 0 24 24" id="ri-mail-check-line">
    <g>
        <path fill="none" d="M0 0h24v24H0z"/>
        <path d="M22 14h-2V7.238l-7.928 7.1L4 7.216V19h10v2H3a1 1 0 0 1-1-1V4a1 1 0 0 1 1-1h18a1 1 0 0 1 1 1v10zM4.511 5l7.55 6.662L19.502 5H4.511zM19 22l-3.536-3.536 1.415-1.414L19 19.172l3.536-3.536 1.414 1.414L19 22z"/>
    </g>
</symbol><symbol viewBox="0 0 24 24" id="ri-mail-close-fill">
    <g>
        <path fill="none" d="M0 0h24v24H0z"/>
        <path d="M22 13.341A6 6 0 0 0 14.341 21H3a1 1 0 0 1-1-1V4a1 1 0 0 1 1-1h18a1 1 0 0 1 1 1v9.341zm-9.94-1.658L5.648 6.238 4.353 7.762l7.72 6.555 7.581-6.56-1.308-1.513-6.285 5.439zM21.415 19l2.122 2.121-1.415 1.415L20 20.414l-2.121 2.122-1.415-1.415L18.586 19l-2.122-2.121 1.415-1.415L20 17.586l2.121-2.122 1.415 1.415L21.414 19z"/>
    </g>
</symbol><symbol viewBox="0 0 24 24" id="ri-mail-close-line">
    <g>
        <path fill="none" d="M0 0h24v24H0z"/>
        <path d="M22 14h-2V7.238l-7.928 7.1L4 7.216V19h11v2H3a1 1 0 0 1-1-1V4a1 1 0 0 1 1-1h18a1 1 0 0 1 1 1v10zM4.511 5l7.55 6.662L19.502 5H4.511zm16.903 14l2.122 2.121-1.415 1.415L20 20.414l-2.121 2.122-1.415-1.415L18.586 19l-2.122-2.121 1.415-1.415L20 17.586l2.121-2.122 1.415 1.415L21.414 19z"/>
    </g>
</symbol><symbol viewBox="0 0 24 24" id="ri-mail-download-fill">
    <g>
        <path fill="none" d="M0 0h24v24H0z"/>
        <path d="M22 12.803A6 6 0 0 0 13.803 21H3a1 1 0 0 1-1-1V4a1 1 0 0 1 1-1h18a1 1 0 0 1 1 1v8.803zm-9.94-1.12L5.648 6.238 4.353 7.762l7.72 6.555 7.581-6.56-1.308-1.513-6.285 5.439zM20 18h3l-4 4-4-4h3v-4h2v4z"/>
    </g>
</symbol><symbol viewBox="0 0 24 24" id="ri-mail-download-line">
    <g>
        <path fill="none" d="M0 0h24v24H0z"/>
        <path d="M20 7.238l-7.928 7.1L4 7.216V19h9v2H3a1 1 0 0 1-1-1V4a1 1 0 0 1 1-1h18a1 1 0 0 1 1 1v8h-2V7.238zM19.501 5H4.511l7.55 6.662L19.502 5zM20 18h3l-4 4-4-4h3v-4h2v4z"/>
    </g>
</symbol><symbol viewBox="0 0 24 24" id="ri-mail-fill">
    <g>
        <path fill="none" d="M0 0h24v24H0z"/>
        <path d="M3 3h18a1 1 0 0 1 1 1v16a1 1 0 0 1-1 1H3a1 1 0 0 1-1-1V4a1 1 0 0 1 1-1zm9.06 8.683L5.648 6.238 4.353 7.762l7.72 6.555 7.581-6.56-1.308-1.513-6.285 5.439z"/>
    </g>
</symbol><symbol viewBox="0 0 24 24" id="ri-mail-forbid-fill">
    <g>
        <path fill="none" d="M0 0h24v24H0z"/>
        <path d="M15.266 11.554l4.388-3.798-1.308-1.512-6.285 5.439-6.414-5.445-1.294 1.524 7.702 6.54A6.967 6.967 0 0 0 11 18c0 1.074.242 2.09.674 3H3a1 1 0 0 1-1-1V4a1 1 0 0 1 1-1h18a1 1 0 0 1 1 1v8.255A6.968 6.968 0 0 0 18 11c-.97 0-1.894.197-2.734.554zm1.44 9.154a3 3 0 0 0 4.001-4.001l-4 4zm-1.414-1.415l4.001-4a3 3 0 0 0-4.001 4.001zM18 23a5 5 0 1 1 0-10 5 5 0 0 1 0 10z"/>
    </g>
</symbol><symbol viewBox="0 0 24 24" id="ri-mail-forbid-line">
    <g>
        <path fill="none" d="M0 0h24v24H0z"/>
        <path d="M20 7.238l-7.928 7.1L4 7.216V19h7.07a6.95 6.95 0 0 0 .604 2H3a1 1 0 0 1-1-1V4a1 1 0 0 1 1-1h18a1 1 0 0 1 1 1v8.255a6.972 6.972 0 0 0-2-.965V7.238zM19.501 5H4.511l7.55 6.662L19.502 5zm-2.794 15.708a3 3 0 0 0 4.001-4.001l-4.001 4zm-1.415-1.415l4.001-4a3 3 0 0 0-4.001 4.001zM18 23a5 5 0 1 1 0-10 5 5 0 0 1 0 10z"/>
    </g>
</symbol><symbol viewBox="0 0 24 24" id="ri-mail-line">
    <g>
        <path fill="none" d="M0 0h24v24H0z"/>
        <path d="M3 3h18a1 1 0 0 1 1 1v16a1 1 0 0 1-1 1H3a1 1 0 0 1-1-1V4a1 1 0 0 1 1-1zm17 4.238l-7.928 7.1L4 7.216V19h16V7.238zM4.511 5l7.55 6.662L19.502 5H4.511z"/>
    </g>
</symbol><symbol viewBox="0 0 24 24" id="ri-mail-lock-fill">
    <g>
        <path fill="none" d="M0 0h24v24H0z"/>
        <path d="M22 12a5.002 5.002 0 0 0-7.9 3H13v6H3a1 1 0 0 1-1-1V4a1 1 0 0 1 1-1h18a1 1 0 0 1 1 1v8zm-9.94-.317L5.648 6.238 4.353 7.762l7.72 6.555 7.581-6.56-1.308-1.513-6.285 5.439zM22 17h1v5h-8v-5h1v-1a3 3 0 0 1 6 0v1zm-2 0v-1a1 1 0 0 0-2 0v1h2z"/>
    </g>
</symbol><symbol viewBox="0 0 24 24" id="ri-mail-lock-line">
    <g>
        <path fill="none" d="M0 0h24v24H0z"/>
        <path d="M20 7.238l-7.928 7.1L4 7.216V19h9v2H3a1 1 0 0 1-1-1V4a1 1 0 0 1 1-1h18a1 1 0 0 1 1 1v7h-2V7.238zM19.501 5H4.511l7.55 6.662L19.502 5zM22 17h1v5h-8v-5h1v-1a3 3 0 0 1 6 0v1zm-2 0v-1a1 1 0 0 0-2 0v1h2z"/>
    </g>
</symbol><symbol viewBox="0 0 24 24" id="ri-mail-open-fill">
    <g>
        <path fill="none" d="M0 0h24v24H0z"/>
        <path d="M2.243 6.854L11.49 1.31a1 1 0 0 1 1.029 0l9.238 5.545a.5.5 0 0 1 .243.429V20a1 1 0 0 1-1 1H3a1 1 0 0 1-1-1V7.283a.5.5 0 0 1 .243-.429zm16.103 1.39l-6.285 5.439-6.414-5.445-1.294 1.524 7.72 6.555 7.581-6.56-1.308-1.513z"/>
    </g>
</symbol><symbol viewBox="0 0 24 24" id="ri-mail-open-line">
    <g>
        <path fill="none" d="M0 0h24v24H0z"/>
        <path d="M2.243 6.854L11.49 1.31a1 1 0 0 1 1.029 0l9.238 5.545a.5.5 0 0 1 .243.429V20a1 1 0 0 1-1 1H3a1 1 0 0 1-1-1V7.283a.5.5 0 0 1 .243-.429zM4 8.133V19h16V8.132l-7.996-4.8L4 8.132zm8.06 5.565l5.296-4.463 1.288 1.53-6.57 5.537-6.71-5.53 1.272-1.544 5.424 4.47z"/>
    </g>
</symbol><symbol viewBox="0 0 24 24" id="ri-mail-send-fill">
    <g>
        <path fill="none" d="M0 0h24v24H0z"/>
        <path d="M2 5.5V3.993A1 1 0 0 1 2.992 3h18.016c.548 0 .992.445.992.993v16.014a1 1 0 0 1-.992.993H2.992A.993.993 0 0 1 2 20.007V19h18V7.3l-8 7.2-10-9zM0 10h5v2H0v-2zm0 5h8v2H0v-2z"/>
    </g>
</symbol><symbol viewBox="0 0 24 24" id="ri-mail-send-line">
    <g>
        <path fill="none" d="M0 0h24v24H0z"/>
        <path d="M22 20.007a1 1 0 0 1-.992.993H2.992A.993.993 0 0 1 2 20.007V19h18V7.3l-8 7.2-10-9V4a1 1 0 0 1 1-1h18a1 1 0 0 1 1 1v16.007zM4.434 5L12 11.81 19.566 5H4.434zM0 15h8v2H0v-2zm0-5h5v2H0v-2z"/>
    </g>
</symbol><symbol viewBox="0 0 24 24" id="ri-mail-settings-fill">
    <g>
        <path fill="none" d="M0 0h24v24H0z"/>
        <path d="M22 13.341A6 6 0 0 0 14.341 21H3a1 1 0 0 1-1-1V4a1 1 0 0 1 1-1h18a1 1 0 0 1 1 1v9.341zm-9.94-1.658L5.648 6.238 4.353 7.762l7.72 6.555 7.581-6.56-1.308-1.513-6.285 5.439zm4.99 7.865a3.017 3.017 0 0 1 0-1.096l-1.014-.586 1-1.732 1.014.586c.278-.238.599-.425.95-.55V15h2v1.17c.351.125.672.312.95.55l1.014-.586 1 1.732-1.014.586a3.017 3.017 0 0 1 0 1.096l1.014.586-1 1.732-1.014-.586a2.997 2.997 0 0 1-.95.55V23h-2v-1.17a2.997 2.997 0 0 1-.95-.55l-1.014.586-1-1.732 1.014-.586zM20 20a1 1 0 1 0 0-2 1 1 0 0 0 0 2z"/>
    </g>
</symbol><symbol viewBox="0 0 24 24" id="ri-mail-settings-line">
    <g>
        <path fill="none" d="M0 0h24v24H0z"/>
        <path d="M20 7.238l-7.928 7.1L4 7.216V19h10v2H3a1 1 0 0 1-1-1V4a1 1 0 0 1 1-1h18a1 1 0 0 1 1 1v9h-2V7.238zM19.501 5H4.511l7.55 6.662L19.502 5zM17.05 19.548a3.017 3.017 0 0 1 0-1.096l-1.014-.586 1-1.732 1.014.586c.278-.238.599-.425.95-.55V15h2v1.17c.351.125.672.312.95.55l1.014-.586 1 1.732-1.014.586a3.017 3.017 0 0 1 0 1.096l1.014.586-1 1.732-1.014-.586a2.997 2.997 0 0 1-.95.55V23h-2v-1.17a2.997 2.997 0 0 1-.95-.55l-1.014.586-1-1.732 1.014-.586zM20 20a1 1 0 1 0 0-2 1 1 0 0 0 0 2z"/>
    </g>
</symbol><symbol viewBox="0 0 24 24" id="ri-mail-star-fill">
    <g>
        <path fill="none" d="M0 0h24v24H0z"/>
        <path d="M22 14.044A6 6 0 0 0 13.689 21H3a1 1 0 0 1-1-1V4a1 1 0 0 1 1-1h18a1 1 0 0 1 1 1v10.044zm-9.94-2.361L5.648 6.238 4.353 7.762l7.72 6.555 7.581-6.56-1.308-1.513-6.285 5.439zM19.5 21.75l-2.645 1.39.505-2.945-2.14-2.086 2.957-.43L19.5 15l1.323 2.68 2.957.43-2.14 2.085.505 2.946L19.5 21.75z"/>
    </g>
</symbol><symbol viewBox="0 0 24 24" id="ri-mail-star-line">
    <g>
        <path fill="none" d="M0 0h24v24H0z"/>
        <path d="M22 13h-2V7.238l-7.928 7.1L4 7.216V19h10v2H3a1 1 0 0 1-1-1V4a1 1 0 0 1 1-1h18a1 1 0 0 1 1 1v9zM4.511 5l7.55 6.662L19.502 5H4.511zM19.5 21.75l-2.645 1.39.505-2.945-2.14-2.086 2.957-.43L19.5 15l1.323 2.68 2.957.43-2.14 2.085.505 2.946L19.5 21.75z"/>
    </g>
</symbol><symbol viewBox="0 0 24 24" id="ri-mail-unread-fill">
    <g>
        <path fill="none" d="M0 0h24v24H0z"/>
        <path d="M18.803 8.493A5.023 5.023 0 0 0 22 8.9V20a1 1 0 0 1-1 1H3a1 1 0 0 1-1-1V4a1 1 0 0 1 1-1h13.1c-.066.323-.1.658-.1 1a4.98 4.98 0 0 0 1.193 3.241l-5.132 4.442-6.414-5.445-1.294 1.524 7.72 6.555 6.73-5.824zM21 7a3 3 0 1 1 0-6 3 3 0 0 1 0 6z"/>
    </g>
</symbol><symbol viewBox="0 0 24 24" id="ri-mail-unread-line">
    <g>
        <path fill="none" d="M0 0h24v24H0z"/>
        <path d="M16.1 3a5.023 5.023 0 0 0 0 2H4.511l7.55 6.662 5.049-4.52c.426.527.958.966 1.563 1.285l-6.601 5.911L4 7.216V19h16V8.9a5.023 5.023 0 0 0 2 0V20a1 1 0 0 1-1 1H3a1 1 0 0 1-1-1V4a1 1 0 0 1 1-1h13.1zM21 7a3 3 0 1 1 0-6 3 3 0 0 1 0 6z"/>
    </g>
</symbol><symbol viewBox="0 0 24 24" id="ri-mail-volume-fill">
    <g>
        <path fill="none" d="M0 0h24v24H0z"/>
        <path d="M20 14.5v9L16.667 21H14v-4h2.667L20 14.5zM21 3a1 1 0 0 1 1 1v10.529A6 6 0 0 0 12.34 21L3.002 21a1 1 0 0 1-1-1V4a1 1 0 0 1 1-1h18zm0 14a2 2 0 0 1 .15 3.995L21 21v-4zM5.647 6.238L4.353 7.762l7.72 6.555 7.581-6.56-1.308-1.513-6.286 5.438-6.413-5.444z"/>
    </g>
</symbol><symbol viewBox="0 0 24 24" id="ri-mail-volume-line">
    <g>
        <path fill="none" d="M0 0h24v24H0z"/>
        <path d="M20 14.5v9L16.667 21H14v-4h2.667L20 14.5zM21 3a1 1 0 0 1 1 1v9h-2V7.237l-7.928 7.101L4 7.215V19h8v2H3a1 1 0 0 1-1-1V4a1 1 0 0 1 1-1h18zm0 14a2 2 0 0 1 .15 3.995L21 21v-4zM19.5 5H4.511l7.55 6.662L19.5 5z"/>
    </g>
</symbol>
</svg>
