<!--
 Remix Icon v2.5.0
 https://remixicon.com
 https://github.com/Remix-Design/RemixIcon

 Copyright RemixIcon.com
 Released under the Apache License Version 2.0

 Date: 2020-05-23
-->
<svg xmlns="http://www.w3.org/2000/svg" xlink="http://www.w3.org/1999/xlink" width="0" height="0" style="display:none;"><symbol viewBox="0 0 24 24" id="ri-24-hours-fill">
<symbol viewBox="0 0 24 24" id="ri-arrow-right-s-fill">
    <g>
        <path fill="none" d="M0 0h24v24H0z"/>
        <path d="M16 12l-6 6V6z"/>
    </g>
</symbol><symbol viewBox="0 0 24 24" id="ri-arrow-right-s-line">
    <g>
        <path fill="none" d="M0 0h24v24H0z"/>
        <path d="M13.172 12l-4.95-4.95 1.414-1.414L16 12l-6.364 6.364-1.414-1.414z"/>
    </g>
</symbol>
<symbol viewBox="0 0 24 24" id="ri-arrow-left-s-fill">
    <g>
        <path fill="none" d="M0 0h24v24H0z"/>
        <path d="M8 12l6-6v12z"/>
    </g>
</symbol><symbol viewBox="0 0 24 24" id="ri-arrow-left-s-line">
    <g>
        <path fill="none" d="M0 0h24v24H0z"/>
        <path d="M10.828 12l4.95 4.95-1.414 1.414L8 12l6.364-6.364 1.414 1.414z"/>
    </g>
</symbol>
<symbol viewBox="0 0 24 24" id="ri-arrow-down-circle-fill">
    <g>
        <path fill="none" d="M0 0h24v24H0z"/>
        <path d="M12 2c5.52 0 10 4.48 10 10s-4.48 10-10 10S2 17.52 2 12 6.48 2 12 2zm1 10V8h-2v4H8l4 4 4-4h-3z"/>
    </g>
</symbol><symbol viewBox="0 0 24 24" id="ri-arrow-down-circle-line">
    <g>
        <path fill="none" d="M0 0h24v24H0z"/>
        <path d="M12 2c5.52 0 10 4.48 10 10s-4.48 10-10 10S2 17.52 2 12 6.48 2 12 2zm0 18c4.42 0 8-3.58 8-8s-3.58-8-8-8-8 3.58-8 8 3.58 8 8 8zm1-8h3l-4 4-4-4h3V8h2v4z"/>
    </g>
</symbol><symbol viewBox="0 0 24 24" id="ri-arrow-down-fill">
    <g>
        <path fill="none" d="M0 0h24v24H0z"/>
        <path d="M13 12h7l-8 8-8-8h7V4h2z"/>
    </g>
</symbol><symbol viewBox="0 0 24 24" id="ri-arrow-down-line">
    <g>
        <path fill="none" d="M0 0h24v24H0z"/>
        <path d="M13 16.172l5.364-5.364 1.414 1.414L12 20l-7.778-7.778 1.414-1.414L11 16.172V4h2v12.172z"/>
    </g>
</symbol><symbol viewBox="0 0 24 24" id="ri-arrow-down-s-fill">
    <g>
        <path fill="none" d="M0 0h24v24H0z"/>
        <path d="M12 16l-6-6h12z"/>
    </g>
</symbol><symbol viewBox="0 0 24 24" id="ri-arrow-down-s-line">
    <g>
        <path fill="none" d="M0 0h24v24H0z"/>
        <path d="M12 13.172l4.95-4.95 1.414 1.414L12 16 5.636 9.636 7.05 8.222z"/>
    </g>
</symbol>
</svg>
